<svg xmlns="http://www.w3.org/2000/svg" xmlns:xlink="http://www.w3.org/1999/xlink" id="Capa_1" x="0px" y="0px" viewBox="0 0 283.46 64.83" style="enable-background:new 0 0 283.46 64.83;" xml:space="preserve"><g>	<g>		<g>			<g>				<g>					<path d="M255.46,46.64V33.53h13.85v13.12h3.22V17.93h-3.22V30.7h-13.85V17.93h-3.18v28.71H255.46z M233.81,20.76h4.5      c2.45,0,3.92,0.27,5.35,1.2c1.28,0.82,2.17,2.64,2.17,4.69c0,2.02-0.89,3.84-2.13,4.66c-1.44,0.93-2.91,1.2-5.32,1.2h-4.58      V20.76H233.81z M230.59,17.93v28.71h3.22V35.35h4.62c3.72,0,5.67-0.47,7.57-1.94c1.75-1.36,2.95-4.11,2.95-6.83      c0-2.68-1.16-5.35-3.07-6.83c-1.78-1.36-3.69-1.82-7.72-1.82H230.59z M219.88,35.93h-11.45l5.7-14.4L219.88,35.93z       M207.46,38.57h13.39l3.34,8.07h3.49l-11.87-28.71h-3.1l-11.99,28.71h3.45L207.46,38.57z M180.23,46.64h3.22V20.76h4.5      c2.6,0,4.39,0.12,5.82,1.05c1.78,1.16,2.83,3.41,2.83,5.55c0,2.06-0.66,3.8-2.17,5.28c-1.55,1.44-4.35,1.47-6.36,1.47h-0.93      l8.11,12.53h3.49l-7.14-10.75c2.64-0.27,4.69-0.82,6.4-3.14c1.2-1.63,1.75-3.69,1.71-5.63c0-3.26-1.59-6.33-3.92-7.72      c-1.47-0.93-3.57-1.47-8.07-1.47h-7.49L180.23,46.64L180.23,46.64z M174.56,25.38c-2.25-4.69-7.64-7.95-13.46-7.95      c-8.3,0-15.06,6.21-15.06,14.82c0,8.5,6.63,14.94,15.02,14.94c5.78,0,11.52-3.14,14.01-8.54c0.85-1.79,1.24-3.88,1.28-5.55h-18      v2.64h14.28c-0.47,2.25-1.86,4.42-3.88,6.01c-1.98,1.55-4.66,2.6-7.68,2.6c-6.29,0-11.8-4.81-11.8-12.11      c0-7.18,5.47-11.99,11.76-11.99c2.56,0,4.81,0.74,6.67,2.02c1.24,0.82,2.33,1.86,3.22,3.1h3.64V25.38z"></path>				</g>			</g>		</g>	</g></g><path d="M139.1,32.18c0,8.03-5.96,17.09-19.49,17.09H11.04V15.16h147.67C150.3,15.16,139.1,20.16,139.1,32.18 M110.98,32.14 c0-4.07,2.78-8.46,7.91-8.46c5.33,0,7.88,4.82,7.88,8.58c0,3.72-2.55,8.5-7.8,8.5c-4.98,0-7.99-4.15-7.99-8.58 C110.98,32.18,110.98,32.14,110.98,32.14z M103.57,32.57c0,7.44,6.11,14.69,15.24,14.69c9.01,0,15.36-6.97,15.36-15.04 s-6.39-15.04-15.32-15.04c-7.99,0-15.28,5.88-15.28,15.36V32.57z M93.23,35.86c-0.47,1.02-2.35,4.9-6.97,4.9 c-4.82,0-7.8-4.23-7.8-8.62c0-4.11,2.78-8.46,7.76-8.46c4,0,6.19,2.9,7.01,5.05h7.76c-0.78-4.54-5.64-11.56-14.73-11.56 c-9.48,0-15.2,7.6-15.2,15c0,7.84,6.19,15.08,15.28,15.08c7.01,0,12.97-4.54,14.65-11.4h-7.76V35.86z M51.54,46.71h16.42v-6.5h-9.01 v-4.98h8.74v-6.5h-8.74v-4.51h9.01v-6.5H51.54V46.71z M34.98,28.38V18.8h-9.07v9.58H15.45v8.31h10.46v9.58h9.07v-9.58h10.46v-8.31 H34.98z"></path></svg>