<svg xmlns="http://www.w3.org/2000/svg" xmlns:xlink="http://www.w3.org/1999/xlink" id="Capa_1" x="0px" y="0px" viewBox="0 0 230.79 131.46" style="enable-background:new 0 0 230.79 131.46;" xml:space="preserve"><style type="text/css">	.st0{fill:none;stroke:#000000;stroke-width:2.5;stroke-miterlimit:10;}	.st1{fill:none;stroke:#000000;stroke-width:5;stroke-miterlimit:10;}</style><g>	<path d="M13.45,54.78h50.42v15.31H30.91V80.8h29.8v14.5h-29.8v22.51H13.45V54.78z"></path>	<path d="M146.97,54.78h17.56v63.03h-17.56V54.78z"></path>	<path d="M176.05,54.78h17.47v47.72h30.52v15.31h-47.99V54.78z"></path></g><g>	<defs>		<path id="SVGID_1_" d="M223.82,42.66c-29.98-21.89-67.5-34.93-108.26-34.93C74.81,7.74,37.28,20.77,7.3,42.66   c-0.23,0.17-0.29,0.48-0.13,0.72c0.16,0.24,0.48,0.32,0.73,0.18c31.12-16.49,68.04-26.08,107.66-26.08   c39.62,0,76.54,9.59,107.67,26.08c0.08,0.04,0.17,0.07,0.26,0.07c0.18,0,0.36-0.09,0.46-0.25   C224.11,43.14,224.06,42.83,223.82,42.66"></path>	</defs>	<use xlink:href="#SVGID_1_" style="overflow:visible;"></use>	<clipPath id="SVGID_00000085951521507078516960000016928438078810565025_">		<use xlink:href="#SVGID_1_" style="overflow:visible;"></use>	</clipPath></g><path class="st0" d="M138.56,86.2c0,18.9-15.32,34.22-34.22,34.22S70.12,105.1,70.12,86.2s15.32-34.22,34.22-34.22 S138.56,67.3,138.56,86.2z"></path><circle class="st1" cx="104.34" cy="86.2" r="17.15"></circle></svg>