<?xml version="1.0" encoding="utf-8"?>
<!-- Generator: Adobe Illustrator 27.0.0, SVG Export Plug-In . SVG Version: 6.00 Build 0)  -->
<svg version="1.1" id="Capa_1" xmlns="http://www.w3.org/2000/svg" xmlns:xlink="http://www.w3.org/1999/xlink" x="0px" y="0px"
	 viewBox="0 0 992.01 334.42" style="enable-background:new 0 0 992.01 334.42;" xml:space="preserve">
<style type="text/css">
	.st0{fill:#FFFFFF;stroke:#000000;stroke-width:5.8151;stroke-miterlimit:10;}
	.st1{fill:#6F6F6E;}
	.st2{fill:none;}
	.st3{fill:#00A6FF;}
	.st4{fill:#FF00B1;}
	.st5{enable-background:new    ;}
</style>
<rect x="14.49" y="23.41" class="st0" width="963.68" height="196.47"/>
<g>
	<g>
		<path class="st1" d="M145.36,161.14c-2.62,2.07-5.52,3.87-8.65,5.39c-3.13,1.52-6.54,2.62-10.27,3.41
			c-3.73,0.78-7.87,1.15-12.52,1.15c-7,0-13.49-1.29-19.47-3.82c-5.98-2.53-11.19-6.03-15.51-10.4c-4.37-4.42-7.73-9.62-10.22-15.61
			c-2.44-5.98-3.68-12.38-3.68-19.2v-0.28c0-6.81,1.24-13.17,3.68-19.15c2.44-5.94,5.85-11.19,10.22-15.65
			c4.37-4.51,9.58-8.01,15.65-10.63c6.08-2.58,12.8-3.87,20.16-3.87c4.47,0,8.52,0.37,12.2,1.1c3.68,0.74,7,1.7,9.99,2.99
			s5.75,2.81,8.29,4.65c2.53,1.8,4.88,3.82,7.09,5.98l-13.35,15.38c-3.73-3.36-7.5-5.98-11.37-7.92c-3.87-1.89-8.19-2.85-12.98-2.85
			c-4,0-7.69,0.78-11.09,2.3c-3.41,1.57-6.35,3.68-8.79,6.4s-4.37,5.89-5.71,9.48C87.65,113.58,87,117.4,87,121.5v0.28
			c0,4.1,0.69,7.96,2.03,11.55c1.38,3.64,3.22,6.81,5.66,9.53c2.39,2.72,5.29,4.88,8.7,6.44c3.41,1.61,7.14,2.39,11.23,2.39
			c5.43,0,10.04-1.01,13.81-2.99c3.77-1.98,7.5-4.7,11.23-8.15l13.34,13.5C150.52,156.67,147.99,159.02,145.36,161.14z"/>
		<path class="st1" d="M227.58,169.43l-20.44-30.47h-16.48v30.47h-20.95v-95.3h43.55c11.32,0,20.16,2.76,26.47,8.29
			c6.31,5.52,9.48,13.26,9.48,23.16v0.28c0,7.73-1.89,13.99-5.66,18.87c-3.77,4.88-8.7,8.42-14.78,10.68l23.29,34.02L227.58,169.43
			L227.58,169.43z M227.99,106.68c0-4.56-1.47-7.92-4.37-10.22c-2.9-2.26-6.95-3.41-12.11-3.41h-20.85v27.34h21.22
			c5.16,0,9.16-1.24,11.92-3.68s4.14-5.71,4.14-9.81L227.99,106.68L227.99,106.68z"/>
		<path class="st1" d="M288.8,130.76v20.02h51.74v18.64h-72.41V74.13h71.72v18.64H288.8v19.33V130.76z"/>
		<path class="st1" d="M443.48,140.56c-2.44,5.8-5.94,10.86-10.4,15.1c-4.51,4.28-9.85,7.64-16.07,10.08
			c-6.21,2.44-13.03,3.68-20.49,3.68h-37.15V74.13h37.15c7.46,0,14.27,1.2,20.49,3.59c6.21,2.39,11.55,5.75,16.07,9.99
			c4.51,4.28,7.96,9.3,10.4,15.05s3.68,12.01,3.68,18.74v0.28C447.16,128.5,445.92,134.76,443.48,140.56z M425.25,121.78
			c0-4.19-0.69-8.06-2.12-11.55c-1.43-3.54-3.36-6.58-5.85-9.11c-2.49-2.53-5.52-4.51-9.07-5.94c-3.54-1.43-7.46-2.12-11.69-2.12
			h-16.2v57.45h16.2c4.28,0,8.15-0.69,11.69-2.03c3.54-1.38,6.54-3.31,9.07-5.85c2.49-2.53,4.47-5.52,5.85-8.98
			c1.38-3.45,2.12-7.32,2.12-11.55V121.78z"/>
		<path d="M583.98,121.92c-1.98,4.19-4.74,7.69-8.24,10.5s-7.6,4.93-12.25,6.35c-4.7,1.43-9.67,2.12-15.05,2.12h-15.93v28.59h-20.95
			v-95.3h38.95c5.71,0,10.82,0.78,15.33,2.39s8.29,3.82,11.42,6.72s5.52,6.4,7.23,10.4c1.7,4.05,2.53,8.52,2.53,13.4v0.28
			C586.97,112.9,585.96,117.73,583.98,121.92z M565.75,107.51c0-4.7-1.52-8.29-4.56-10.77c-3.04-2.44-7.18-3.68-12.48-3.68h-16.2
			v29.14h16.62c5.25,0,9.34-1.38,12.25-4.14c2.9-2.76,4.37-6.21,4.37-10.27C565.75,107.79,565.75,107.51,565.75,107.51z"/>
		<g>
			<path class="st2" d="M627.52,120.4h17.17c5.16,0,9.16-1.24,11.92-3.68s4.14-5.71,4.14-9.81v-0.28c0-4.56-1.47-7.92-4.37-10.22
				c-2.9-2.26-6.95-3.41-12.11-3.41h-20.85v27.34h2.99l0.23-1.29L627.52,120.4z"/>
			<path d="M623.47,120.4V93.05h20.85c5.16,0,9.21,1.15,12.11,3.41c2.9,2.26,4.37,5.66,4.37,10.22v0.28c0,4.1-1.38,7.37-4.14,9.81
				c-2.76,2.44-6.72,3.68-11.92,3.68h-17.17l32.82,49.03h24.49l-23.29-34.02c6.08-2.26,11-5.85,14.78-10.68
				c3.77-4.83,5.66-11.14,5.66-18.87v-0.28c0-9.9-3.18-17.59-9.48-23.16c-6.31-5.52-15.15-8.29-26.47-8.29h-43.55v95.29h20.95V139
				L623.47,120.4L623.47,120.4z"/>
		</g>
		<path d="M813.5,169.43l-46.17-60.58v60.58h-20.67v-95.3H766l44.65,58.69V74.13h20.72v95.29L813.5,169.43L813.5,169.43z"/>
		<path d="M897.38,93.47v75.96h-20.95V93.47h-29V74.13h78.95v19.33C926.38,93.47,897.38,93.47,897.38,93.47z"/>
	</g>
	<rect x="466.77" y="74.13" class="st3" width="20.95" height="95.29"/>
	<rect x="301" y="112.11" class="st4" width="32.73" height="18.64"/>
	<path d="M701.87,169.43v-95.3h20.95v95.29L701.87,169.43L701.87,169.43z"/>
</g>
<g class="st5">
	<path d="M94.08,275.21H71.11v12.84h20.53v3.87H71.11v13.17h23.25v3.87H66.87V271.3h27.21V275.21z"/>
	<path d="M111.99,283.13c0.28,0.74,0.83,1.38,1.57,1.98s1.8,1.15,3.13,1.61c1.33,0.46,3.04,0.97,5.11,1.38
		c4.19,0.92,7.27,2.21,9.3,3.87c1.98,1.66,2.99,3.91,2.99,6.86c0,1.61-0.32,3.08-0.97,4.42c-0.64,1.34-1.52,2.44-2.62,3.41
		c-1.1,0.92-2.49,1.66-4.05,2.16s-3.31,0.74-5.16,0.74c-2.99,0-5.75-0.51-8.24-1.47c-2.49-0.97-4.88-2.49-7.14-4.51l2.62-3.13
		c1.98,1.8,3.96,3.13,5.98,4c2.03,0.87,4.33,1.34,6.95,1.34c2.53,0,4.56-0.6,6.12-1.8c1.52-1.2,2.3-2.76,2.3-4.7
		c0-0.92-0.14-1.7-0.41-2.39c-0.28-0.69-0.78-1.34-1.52-1.93c-0.74-0.55-1.7-1.1-2.99-1.57c-1.29-0.46-2.9-0.92-4.88-1.34
		c-2.16-0.46-4.05-1.01-5.62-1.61c-1.61-0.6-2.9-1.33-3.96-2.21c-1.06-0.87-1.8-1.89-2.3-3.04c-0.51-1.15-0.74-2.53-0.74-4.1
		c0-1.52,0.32-2.9,0.92-4.14c0.6-1.24,1.47-2.35,2.58-3.27c1.1-0.92,2.44-1.61,3.91-2.16c1.47-0.55,3.18-0.78,4.93-0.78
		c2.76,0,5.16,0.37,7.23,1.15s4.05,1.89,5.98,3.45l-2.49,3.27c-1.75-1.43-3.54-2.49-5.29-3.13c-1.8-0.64-3.64-0.97-5.57-0.97
		c-1.2,0-2.3,0.18-3.31,0.51c-0.97,0.32-1.84,0.74-2.53,1.29s-1.24,1.2-1.61,1.93c-0.37,0.74-0.55,1.57-0.55,2.44
		C111.53,281.61,111.66,282.39,111.99,283.13z"/>
	<path d="M161.43,308.96h-4.24v-33.7h-12.66v-3.91h29.51v3.91h-12.66v33.7H161.43z"/>
	<path d="M217.68,308.96h-4.56l-4.42-9.94h-20.49l-4.47,9.94h-4.37l17.17-37.93h3.96L217.68,308.96z M198.49,276.09l-8.61,19.2
		h17.17L198.49,276.09z"/>
	<path d="M248.57,298.64h-0.23l-13.72-20.12v30.43h-4.14V271.3h4.28l13.72,20.58l13.72-20.53h4.28V309h-4.24v-30.47L248.57,298.64z"
		/>
	<path d="M317.85,297.54c-0.92,2.35-2.26,4.42-3.91,6.21c-1.7,1.8-3.73,3.22-6.08,4.28c-2.35,1.06-4.97,1.57-7.87,1.57
		s-5.48-0.51-7.83-1.57c-2.35-1.06-4.37-2.44-6.03-4.24c-1.7-1.8-2.99-3.82-3.91-6.17s-1.38-4.83-1.38-7.46
		c0-2.62,0.46-5.11,1.38-7.46s2.26-4.42,3.91-6.21c1.7-1.8,3.73-3.22,6.08-4.28c2.35-1.06,4.97-1.57,7.87-1.57s5.48,0.51,7.83,1.57
		c2.35,1.06,4.37,2.44,6.03,4.24c1.7,1.8,2.99,3.82,3.91,6.17s1.38,4.83,1.38,7.46C319.23,292.71,318.77,295.19,317.85,297.54z
		 M313.76,284.14c-0.74-1.89-1.75-3.54-3.08-4.97c-1.34-1.43-2.9-2.49-4.7-3.31c-1.8-0.83-3.77-1.24-5.94-1.24
		c-2.16,0-4.14,0.41-5.94,1.2c-1.8,0.78-3.36,1.89-4.65,3.31c-1.29,1.38-2.3,3.04-3.04,4.93c-0.74,1.89-1.1,3.91-1.1,6.03
		c0,2.16,0.37,4.19,1.1,6.08s1.75,3.54,3.08,4.97s2.9,2.49,4.7,3.31c1.8,0.83,3.77,1.24,5.94,1.24c2.16,0,4.14-0.41,5.94-1.2
		c1.8-0.78,3.36-1.89,4.65-3.31c1.29-1.43,2.3-3.04,3.04-4.93c0.74-1.89,1.1-3.91,1.1-6.03
		C314.86,288.06,314.49,286.03,313.76,284.14z"/>
	<path d="M337.05,283.13c0.28,0.74,0.83,1.38,1.57,1.98c0.74,0.6,1.8,1.15,3.13,1.61c1.33,0.46,3.04,0.97,5.11,1.38
		c4.19,0.92,7.27,2.21,9.3,3.87c1.98,1.66,2.99,3.91,2.99,6.86c0,1.61-0.32,3.08-0.97,4.42c-0.64,1.34-1.52,2.44-2.62,3.41
		c-1.1,0.92-2.49,1.66-4.05,2.16s-3.31,0.74-5.16,0.74c-2.99,0-5.75-0.51-8.24-1.47c-2.49-0.97-4.88-2.49-7.14-4.51l2.62-3.13
		c1.98,1.8,3.96,3.13,5.98,4c2.03,0.87,4.33,1.34,6.95,1.34c2.53,0,4.56-0.6,6.12-1.8c1.52-1.2,2.3-2.76,2.3-4.7
		c0-0.92-0.14-1.7-0.41-2.39c-0.28-0.69-0.78-1.34-1.52-1.93c-0.74-0.55-1.7-1.1-2.99-1.57c-1.29-0.46-2.9-0.92-4.88-1.34
		c-2.16-0.46-4.05-1.01-5.62-1.61c-1.61-0.6-2.9-1.33-3.96-2.21c-1.06-0.87-1.8-1.89-2.3-3.04c-0.51-1.15-0.74-2.53-0.74-4.1
		c0-1.52,0.32-2.9,0.92-4.14c0.6-1.24,1.47-2.35,2.58-3.27c1.1-0.92,2.44-1.61,3.91-2.16c1.47-0.55,3.18-0.78,4.93-0.78
		c2.76,0,5.16,0.37,7.23,1.15s4.05,1.89,5.98,3.45l-2.49,3.27c-1.75-1.43-3.54-2.49-5.29-3.13c-1.8-0.64-3.64-0.97-5.57-0.97
		c-1.2,0-2.3,0.18-3.31,0.51c-0.97,0.32-1.84,0.74-2.53,1.29s-1.24,1.2-1.61,1.93s-0.55,1.57-0.55,2.44
		C336.63,281.61,336.77,282.39,337.05,283.13z"/>
	<path d="M421.66,288.7c-0.78,1.52-1.84,2.85-3.22,3.87s-2.9,1.84-4.7,2.35c-1.8,0.51-3.68,0.78-5.71,0.78h-9.16v13.26h-4.24V271.3
		h14.09c2.12,0,4.05,0.28,5.8,0.83s3.22,1.33,4.47,2.35c1.24,1.01,2.21,2.26,2.85,3.77c0.64,1.52,1.01,3.18,1.01,5.02
		C422.81,285.39,422.44,287.18,421.66,288.7z M415.81,277.33c-1.84-1.38-4.33-2.07-7.37-2.07h-9.53v16.57h9.34
		c1.57,0,2.95-0.18,4.24-0.6c1.29-0.41,2.39-0.97,3.27-1.7c0.92-0.74,1.61-1.61,2.12-2.62s0.74-2.16,0.74-3.41
		C418.58,280.78,417.65,278.71,415.81,277.33z"/>
	<path d="M467.23,308.96h-4.56l-4.42-9.94h-20.49l-4.47,9.94h-4.37l17.17-37.93h3.96L467.23,308.96z M448.04,276.09l-8.61,19.2
		h17.17L448.04,276.09z"/>
	<path d="M505.95,308.96l-10.91-14.64h-10.77v14.64h-4.24V271.3h16.2c2.07,0,3.96,0.28,5.62,0.83s3.08,1.29,4.28,2.3
		c1.2,0.97,2.12,2.16,2.76,3.54s0.97,2.9,0.97,4.6c0,1.57-0.23,2.99-0.74,4.24s-1.2,2.3-2.12,3.22c-0.92,0.92-1.98,1.66-3.27,2.3
		c-1.24,0.6-2.62,1.06-4.1,1.29L511.2,309h-5.25V308.96z M503.05,277.24c-1.7-1.34-4.05-1.98-7.14-1.98h-11.65v15.33h11.6
		c1.38,0,2.72-0.18,3.87-0.55c1.2-0.37,2.21-0.87,3.08-1.52c0.87-0.64,1.52-1.47,2.03-2.44s0.74-2.07,0.74-3.27
		C505.58,280.37,504.75,278.53,503.05,277.24z"/>
	<path d="M559.35,308.96h-4.56l-4.42-9.94h-20.49l-4.47,9.94h-4.37l17.17-37.93h3.96L559.35,308.96z M540.15,276.09l-8.61,19.2
		h17.17L540.15,276.09z"/>
	<path d="M628.72,308.96h-4.56l-4.42-9.94h-20.49l-4.47,9.94h-4.37l17.17-37.93h3.96L628.72,308.96z M609.53,276.09l-8.61,19.2
		h17.17L609.53,276.09z"/>
	<path d="M668.5,288.7c-0.78,1.52-1.84,2.85-3.22,3.87s-2.9,1.84-4.7,2.35s-3.68,0.78-5.71,0.78h-9.16v13.26h-4.24V271.3h14.09
		c2.12,0,4.05,0.28,5.8,0.83s3.22,1.33,4.47,2.35c1.24,1.01,2.16,2.26,2.85,3.77c0.64,1.47,1.01,3.18,1.01,5.02
		C669.69,285.39,669.32,287.18,668.5,288.7z M662.7,277.33c-1.84-1.38-4.33-2.07-7.37-2.07h-9.53v16.57h9.34
		c1.57,0,2.95-0.18,4.24-0.6c1.29-0.41,2.39-0.97,3.27-1.7c0.92-0.74,1.61-1.61,2.12-2.62s0.74-2.16,0.74-3.41
		C665.46,280.78,664.54,278.71,662.7,277.33z"/>
	<path d="M718.17,297.54c-0.92,2.35-2.26,4.42-3.91,6.21c-1.7,1.8-3.73,3.22-6.08,4.28c-2.35,1.06-4.97,1.57-7.87,1.57
		s-5.48-0.51-7.83-1.57c-2.35-1.06-4.37-2.44-6.03-4.24c-1.7-1.8-2.99-3.82-3.91-6.17s-1.38-4.83-1.38-7.46
		c0-2.62,0.46-5.11,1.38-7.46s2.26-4.42,3.91-6.21c1.7-1.8,3.73-3.22,6.08-4.28c2.35-1.06,4.97-1.57,7.87-1.57s5.48,0.51,7.83,1.57
		c2.35,1.06,4.37,2.44,6.03,4.24c1.7,1.8,2.99,3.82,3.91,6.17s1.38,4.83,1.38,7.46C719.55,292.71,719.09,295.19,718.17,297.54z
		 M714.02,284.14c-0.74-1.89-1.75-3.54-3.08-4.97s-2.9-2.49-4.7-3.31c-1.8-0.83-3.77-1.24-5.94-1.24c-2.16,0-4.14,0.41-5.94,1.2
		c-1.8,0.78-3.36,1.89-4.65,3.31c-1.29,1.43-2.3,3.04-3.04,4.93c-0.74,1.89-1.1,3.91-1.1,6.03c0,2.16,0.37,4.19,1.1,6.08
		s1.75,3.54,3.08,4.97s2.9,2.49,4.7,3.31c1.8,0.83,3.77,1.24,5.94,1.24s4.14-0.41,5.94-1.2c1.8-0.78,3.36-1.89,4.65-3.31
		c1.29-1.43,2.3-3.04,3.04-4.93s1.1-3.91,1.1-6.03C715.13,288.06,714.76,286.03,714.02,284.14z"/>
	<path d="M746.71,308.96h-4.24v-14.92l-15.65-22.74h5.16l12.66,18.83l12.75-18.83h4.97l-15.65,22.69L746.71,308.96L746.71,308.96z"
		/>
	<path d="M803.7,308.96h-4.56l-4.42-9.94h-20.49l-4.47,9.94h-4.37l17.17-37.93h4L803.7,308.96z M784.5,276.09l-8.61,19.2h17.17
		L784.5,276.09z"/>
	<path d="M842.41,308.96l-10.91-14.64h-10.77v14.64h-4.24V271.3h16.2c2.07,0,3.96,0.28,5.62,0.83s3.08,1.29,4.28,2.3
		c1.2,0.97,2.12,2.16,2.76,3.54s0.97,2.9,0.97,4.6c0,1.57-0.23,2.99-0.74,4.24c-0.51,1.24-1.2,2.3-2.12,3.22s-1.98,1.66-3.27,2.3
		c-1.24,0.6-2.62,1.06-4.1,1.29L847.66,309h-5.25V308.96z M839.51,277.24c-1.7-1.34-4.05-1.98-7.14-1.98h-11.65v15.33h11.6
		c1.38,0,2.72-0.18,3.87-0.55c1.2-0.37,2.21-0.87,3.08-1.52c0.87-0.64,1.52-1.47,2.03-2.44s0.74-2.07,0.74-3.27
		C842.04,280.37,841.22,278.53,839.51,277.24z"/>
	<path d="M874.59,308.96h-4.24v-33.7H857.7v-3.91h29.51v3.91h-12.66v33.7H874.59z"/>
	<path d="M927.81,275.21h-22.97v12.84h20.53v3.87h-20.53v13.17h23.25v3.87H900.6V271.3h27.21V275.21z"/>
</g>
</svg>
