<svg xmlns="http://www.w3.org/2000/svg" xmlns:xlink="http://www.w3.org/1999/xlink" id="Capa_1" x="0px" y="0px" viewBox="0 0 459.43 141.73" style="enable-background:new 0 0 459.43 141.73;" xml:space="preserve"><g>	<path d="M121.09,78.83v27.39h-7V79.14c0-9.89-5.15-15.55-13.7-15.55c-5.87,0-11.43,2.78-15.24,9.17c0.41,1.85,0.62,3.91,0.62,6.08  v27.39h-7V79.14c0-9.89-5.25-15.55-13.69-15.55c-5.66,0-10.92,2.88-14.73,8.65v33.98h-7V58.65h7v5.46c3.91-4.43,8.75-7,15.96-7  c7,0,12.87,3.19,16.27,8.86c4.64-5.66,10.61-8.86,19.05-8.86C113.06,57.1,121.09,65.44,121.09,78.83"></path>	<path d="M131.48,40.63c0-2.68,2.16-4.74,4.84-4.74c2.78,0,4.94,2.06,4.94,4.74c0,2.78-2.16,4.74-4.94,4.74  C133.65,45.36,131.48,43.41,131.48,40.63 M139.83,106.22h-7V58.65h7V106.22z"></path>	<path d="M160.52,66.89c4.43-5.97,10.91-9.47,18.64-9.47v6.69c-7.83,0.21-14.42,4.12-18.64,11.02v31.1h-7V58.65h7V66.89z"></path>	<path d="M229.82,106.22h-7v-5.25c-4.32,4.12-10.09,6.59-17.2,6.59c-13.59,0-24.61-11.12-24.61-25.12  c0-13.9,11.02-25.02,24.61-25.02c7.1,0,12.87,2.47,17.2,6.59v-5.36h7V106.22z M222.82,92.73V72.24c-4.02-5.76-9.78-8.65-16.27-8.65  c-10.5,0-18.43,8.65-18.43,18.84c0,10.3,7.93,18.95,18.43,18.95C213.04,101.38,218.8,98.5,222.82,92.73"></path>	<rect x="295.51" y="33.11" width="7" height="73.11"></rect>	<path d="M416.08,78.83v27.39h-7V79.14c0-9.89-5.87-15.55-14.52-15.55c-6.08,0-12.25,3.19-16.37,8.86v33.78h-7V58.65h7v5.66  c4.42-4.53,10.6-7.21,17.61-7.21C407.74,57.1,416.08,65.44,416.08,78.83"></path>	<path d="M345.61,57.98v6.99c6.86,2.83,11.68,9.57,11.68,17.45c0,10.42-8.45,18.87-18.87,18.87c-10.42,0-18.87-8.45-18.87-18.87  c0-7.87,4.83-14.62,11.68-17.45v-6.99c-10.56,3.1-18.28,12.87-18.28,24.44c0,14.07,11.4,25.48,25.47,25.48  c14.07,0,25.47-11.41,25.47-25.48C363.89,70.85,356.17,61.09,345.61,57.98"></path>	<path d="M288.95,90.34h-6.99c-2.83,6.86-9.57,11.68-17.45,11.68c-10.42,0-18.87-8.45-18.87-18.87c0-10.42,8.45-18.87,18.87-18.87  c7.88,0,14.62,4.83,17.45,11.68h6.99c-3.1-10.56-12.87-18.28-24.44-18.28c-14.07,0-25.47,11.4-25.47,25.47  c0,14.07,11.41,25.47,25.47,25.47C276.09,108.62,285.85,100.9,288.95,90.34"></path></g></svg>