<svg xmlns="http://www.w3.org/2000/svg" xmlns:xlink="http://www.w3.org/1999/xlink" id="Capa_1" x="0px" y="0px" viewBox="0 0 283.46 283.46" style="enable-background:new 0 0 283.46 283.46;" xml:space="preserve"><g>	<path d="M60.48,197.01c4.58,15.38,14.18,29.21,27.04,38.95c13.29,10.07,29.15,15.39,45.87,15.39s32.58-5.32,45.87-15.39  c12.86-9.74,22.46-23.57,27.04-38.95l0.73-2.44H59.75L60.48,197.01z M201.87,198.37c-9.81,29.08-37.61,49.18-68.49,49.18  s-58.67-20.09-68.49-49.18H201.87z"></path>	<path d="M205.64,151.49c-9.51-28.89-35.95-49.61-66.15-52.04V51.21l74.23,45.33c0.09,0.08,0.18,0.17,0.29,0.23l0.03-0.05  c1.71,0.89,5.59-0.23,7.49-1.48c1.83-1.21,3.14-3.15,3.12-4.63c-0.01-0.76-0.36-1.42-0.96-1.81l-87.17-56.82h-11.57v67.69  c-29.55,3.26-54.49,23.43-63.83,51.81l-0.82,2.49h146.16L205.64,151.49z M65.6,150.18c9.67-26.16,33.5-44.45,61.41-46.89l1.73-0.15  V35.79h6.65l82.38,53.7c-0.62,0.26-1.18,0.54-1.63,0.84c-0.82,0.55-1.53,1.24-2.08,1.98L135.7,44.44v58.59l1.79,0.1  c28.51,1.6,53.77,20.38,63.67,47.06H65.6z"></path>	<path d="M223.38,158.31c-1.16-2.33-2.36-4.75-3.4-7.05l-1.73-3.81l-1.73,3.81c-1.04,2.3-2.24,4.71-3.4,7.04  c-3.95,7.93-8.03,16.14-8.03,23.54c0,7.38,5.66,12.94,13.16,12.94s13.16-5.56,13.16-12.94  C231.41,174.45,227.33,166.24,223.38,158.31z M218.25,190.99c-6.08,0-9.36-4.71-9.36-9.14c0-6.51,3.88-14.31,7.63-21.85  c0.57-1.16,1.16-2.33,1.73-3.5c0.57,1.18,1.16,2.35,1.73,3.51c3.75,7.54,7.63,15.34,7.63,21.85  C227.61,186.28,224.33,190.99,218.25,190.99z"></path></g><g>	<path d="M78.28,189.19H68.23l-4.31-11.43h-2.86v11.43h-9.07V159.3h15.43c3.4,0,6.05,0.81,7.93,2.42c1.88,1.61,2.82,3.74,2.82,6.38  c0,1.72-0.35,3.25-1.04,4.57s-2.09,2.49-4.2,3.49L78.28,189.19z M61.06,171.37h3.87c1.14,0,2.06-0.24,2.75-0.72  c0.69-0.48,1.04-1.19,1.04-2.12c0-1.91-1.16-2.87-3.48-2.87h-4.18V171.37z"></path>	<path d="M104.79,182.05v7.14H82.57V159.3h22.22v6.9H91.46v4.33h10.78v6.64H91.46v4.88H104.79z"></path>	<path d="M124.63,177.78l8.29,0.5c-0.39,3.67-1.73,6.47-4.01,8.43c-2.29,1.96-5.1,2.93-8.43,2.93c-4.01,0-7.25-1.34-9.72-4.03  c-2.47-2.69-3.7-6.39-3.7-11.12c0-4.69,1.17-8.47,3.51-11.34s5.6-4.31,9.78-4.31c3.91,0,6.91,1.09,9.01,3.29  c2.1,2.19,3.29,5.09,3.56,8.71l-8.46,0.46c0-2-0.38-3.45-1.14-4.34c-0.76-0.89-1.65-1.33-2.67-1.33c-2.86,0-4.28,2.9-4.28,8.71  c0,3.26,0.37,5.47,1.11,6.63c0.74,1.17,1.79,1.75,3.13,1.75C123,182.73,124.35,181.08,124.63,177.78z"></path>	<path d="M145.3,159.3v29.89h-9.07V159.3H145.3z"></path>	<path d="M166.7,177.78l8.29,0.5c-0.39,3.67-1.73,6.47-4.01,8.43c-2.29,1.96-5.1,2.93-8.43,2.93c-4.01,0-7.25-1.34-9.72-4.03  c-2.47-2.69-3.7-6.39-3.7-11.12c0-4.69,1.17-8.47,3.51-11.34s5.6-4.31,9.78-4.31c3.91,0,6.91,1.09,9.01,3.29  c2.1,2.19,3.29,5.09,3.56,8.71l-8.46,0.46c0-2-0.38-3.45-1.14-4.34c-0.76-0.89-1.65-1.33-2.67-1.33c-2.86,0-4.28,2.9-4.28,8.71  c0,3.26,0.37,5.47,1.11,6.63s1.79,1.75,3.13,1.75C165.07,182.73,166.41,181.08,166.7,177.78z"></path>	<path d="M199,181.86v7.34H178.3V159.3h9.07v22.55H199z"></path></g></svg>