<svg xmlns="http://www.w3.org/2000/svg" xmlns:xlink="http://www.w3.org/1999/xlink" id="Capa_1" x="0px" y="0px" viewBox="0 0 360 308" style="enable-background:new 0 0 360 308;" xml:space="preserve"><style type="text/css">	.st0{fill:#FFF9E2;}	.st1{fill-rule:evenodd;clip-rule:evenodd;fill:#E62129;}	.st2{fill-rule:evenodd;clip-rule:evenodd;fill:#2A7EC2;}	.st3{fill-rule:evenodd;clip-rule:evenodd;fill:#00A2E9;}	.st4{fill-rule:evenodd;clip-rule:evenodd;fill:#115AA6;}	.st5{fill-rule:evenodd;clip-rule:evenodd;fill:#A92F33;}	.st6{fill-rule:evenodd;clip-rule:evenodd;fill:#F08519;}	.st7{fill-rule:evenodd;clip-rule:evenodd;fill:url(#SVGID_1_);}	.st8{fill-rule:evenodd;clip-rule:evenodd;fill:#DFF1FB;}</style><path class="st0" d="M45.65,184.2C3.84,115.22,33.29,42.43,77.79,32.76c30.54-6.63,60.94-6.57,102.72,24.35 c53.49,39.58,84.31,11.67,119.61,56.23c32.29,40.75,31.96,115.63,2.44,143.28c-29.52,27.65-85.34,55.18-151.13,26.87 C101.09,261.82,69.47,223.49,45.65,184.2z"></path><g id="Layer_x5F_1">	<g id="_2893894790752">		<g>			<path class="st1" d="M309.08,66.17L309.08,66.17c-3.85-5.78-7.07-11.7-9.65-17.61c9.84-1.15,20.32-0.38,31.61,2.97    c-1.26,11.72-4.58,21.68-9.43,30.32C317.15,77.2,312.93,71.95,309.08,66.17L309.08,66.17z"></path>			<path class="st2" d="M199.54,139.05c-3.13-4.77-5.66-10.1-7.59-16.13l3.98-3.34c-0.35-1.4-0.67-2.83-0.94-4.3    c1.98-1.65,3.95-3.34,5.92-5.06l-21.19-19.3c15.44-5.2,30.67-6.63,45.58-2.45c21.52-18.92,44.11-36.1,71.3-39.27    c2.71,6.18,6.07,12.39,10.1,18.44l0.05,0.07c4.05,6.08,8.5,11.6,13.18,16.5c-13.41,23.88-37.96,38.09-63.71,50.67    c-1.89,15.38-9.08,28.88-19.82,41.13l-9.65-26.99c-2.34,1.16-4.66,2.33-6.95,3.52c-1.28-0.8-2.51-1.63-3.7-2.5l0.02,0.01    l-4.67,2.43c-4.61-3.98-8.54-8.33-11.75-13.17L199.54,139.05L199.54,139.05z M300.9,71.51c-3.91-5.79-11.77-7.35-17.6-3.47    c-5.83,3.88-7.42,11.74-3.58,17.58l0.05,0.07c3.9,5.85,11.8,7.43,17.65,3.53c5.85-3.9,7.43-11.8,3.53-17.65L300.9,71.51    L300.9,71.51z"></path>			<path class="st3" d="M199.54,139.05c-3.13-4.77-5.66-10.1-7.59-16.13l3.98-3.34c-0.35-1.4-0.67-2.83-0.94-4.3    c1.98-1.65,3.95-3.34,5.92-5.06l-21.19-19.3c15.44-5.2,30.67-6.63,45.58-2.45c21.52-18.92,44.11-36.1,71.3-39.27    c2.71,6.18,6.07,12.39,10.1,18.44l-5.83,3.88c-3.91-5.79-11.77-7.35-17.6-3.47c-5.83,3.88-7.42,11.74-3.58,17.58L199.54,139.05    L199.54,139.05z"></path>			<path class="st4" d="M319.95,84.2c-13.41,23.88-37.96,38.09-63.71,50.67c-1.89,15.38-9.08,28.88-19.82,41.13l-9.65-26.99    c-2.34,1.16-4.66,2.33-6.95,3.52c-1.28-0.8-2.51-1.63-3.7-2.5l0.02,0.01l-4.67,2.43c-4.61-3.98-8.54-8.33-11.75-13.17l-0.17-0.26    l80.18-53.42l0.05,0.07c3.9,5.85,11.8,7.43,17.65,3.53c5.85-3.9,7.43-11.8,3.53-17.65l-0.05-0.07l5.83-3.88l0.05,0.07    C310.82,73.78,315.27,79.3,319.95,84.2L319.95,84.2z"></path>			<path class="st1" d="M309.08,66.17L309.08,66.17c-3.85-5.78-7.07-11.7-9.65-17.61c9.84-1.15,20.32-0.38,31.61,2.97L309.08,66.17    L309.08,66.17z"></path>			<path class="st5" d="M331.04,51.53c-1.26,11.72-4.58,21.68-9.43,30.32c-4.45-4.66-8.68-9.91-12.53-15.69L331.04,51.53    L331.04,51.53z"></path>			<path class="st6" d="M208.48,156.39c-11.55,12.26-43.57,14.93-56.62,14.55c4.72-11.91,19.47-40.9,35.34-46.73    c0.03,0.18,0.07,0.37,0.13,0.55c1.02,3.21,2.22,6.26,3.6,9.16c1.35,2.85,2.89,5.56,4.62,8.16c1.73,2.6,3.62,5.04,5.67,7.33    c2.02,2.26,4.23,4.41,6.62,6.49C208.03,156.09,208.25,156.25,208.48,156.39L208.48,156.39z"></path>							<linearGradient id="SVGID_1_" gradientUnits="userSpaceOnUse" x1="15802.7061" y1="-9857.1475" x2="14754.6299" y2="-10837.8652" gradientTransform="matrix(0.028 4.025401e-03 4.025401e-03 -0.028 -213 -194.0788)">				<stop offset="0" style="stop-color:#F3B436"></stop>				<stop offset="1" style="stop-color:#EC6D20"></stop>			</linearGradient>			<path class="st7" d="M189.18,129.92c3.41,8.51,8.29,15.96,14.8,22.42c-9.65,8.08-31.48,10.75-40.58,10.91    C167.06,155.09,177.93,135.66,189.18,129.92L189.18,129.92z"></path>			<path class="st6" d="M226.35,194.47c8.69,30.02,6.17,55.31-9.07,65.46c-24.16,16.1-71.15-11.97-104.94-62.69    C78.55,146.52,70.74,92.35,94.9,76.26c15.24-10.15,39.55-2.74,63.9,16.84c-21-15.59-41.52-21.04-54.7-12.26    C81.86,95.66,89,145.47,120.07,192.1c31.07,46.62,74.29,72.4,96.54,57.58C229.78,240.9,232.65,219.86,226.35,194.47    L226.35,194.47z"></path>			<path class="st6" d="M155.7,222.98c18.49,14.4,37.18,19.57,49.17,11.58c15.05-10.03,15.03-37.79,1.85-67.7l-6.83,2.83    c11.8,27.23,11.68,52.41-2.06,61.57C187.46,238.16,171.67,234.41,155.7,222.98z M176.72,121.84    c-22.53-23.67-48.13-34.38-63.18-24.35c-11.99,7.99-14.41,27.22-8.24,49.83c-4.4-19.14-1.79-35.16,8.58-42.06    c13.74-9.16,37.02,0.43,57.61,21.8L176.72,121.84L176.72,121.84z"></path>			<path class="st6" d="M189.82,182.53c4.17,15.28,2.53,28.28-5.57,33.67c-12.85,8.56-37.07-5.24-54.11-30.81    c-17.04-25.58-20.44-53.25-7.6-61.81c8.1-5.4,20.73-1.9,33.22,7.83c-10.79-7.72-21.46-10.26-28.46-5.6    c-11.83,7.88-8.72,33.33,6.94,56.84c15.66,23.51,37.95,36.18,49.78,28.3C191.03,206.28,192.8,195.46,189.82,182.53L189.82,182.53    z"></path>			<path class="st8" d="M295.33,53.02c-35.54,12.03-76.77,47.32-93.61,63.7C220.14,95.76,257.33,62.68,295.33,53.02z"></path>		</g>	</g></g></svg>