<svg xmlns="http://www.w3.org/2000/svg" xmlns:xlink="http://www.w3.org/1999/xlink" id="Capa_1" x="0px" y="0px" viewBox="0 0 599.43 141.73" style="enable-background:new 0 0 599.43 141.73;" xml:space="preserve"><style type="text/css">	.st0{fill-rule:evenodd;clip-rule:evenodd;}</style><g>	<g>		<polygon class="st0" points="70.76,22.7 62.36,27.55 62.36,38.81 70.76,33.96 105.32,53.93 105.32,93.83 70.76,113.79 36.2,93.83    36.18,93.83 36.18,31.25 26.43,36.89 26.43,99.47 70.76,125.05 115.06,99.47 115.06,48.28   "></polygon>		<polygon class="st0" points="70.76,36.53 62.36,41.38 62.36,52.64 70.76,47.79 93.36,60.82 93.36,86.94 70.76,99.97 48.15,86.94    48.15,24.34 38.41,29.97 38.41,92.57 70.76,111.23 103.11,92.57 103.11,55.2   "></polygon>		<polygon class="st0" points="70.76,50.33 62.36,55.19 62.36,66.45 70.76,61.59 81.38,67.74 81.38,80.03 70.76,86.17 60.13,80.03    60.13,79.98 60.16,79.96 60.16,17.42 50.36,23.07 50.36,85.65 70.76,97.43 91.13,85.65 91.13,62.11   "></polygon>	</g>	<g>		<path d="M135.5,95.42h-4.95V51.84h4.95v16.18h0.18c1.69-2.41,3.8-3.68,6.7-3.68c9.84,0,10.08,8.75,10.08,16.36   c0,13.4-4.95,15.33-9.84,15.33c-3.2,0-5.31-1.39-7-4.23h-0.12V95.42z M141.06,91.98c6.22,0,6.22-6.64,6.22-11.23   c0-8.15-0.72-12.37-6.04-12.37c-5.49,0-5.73,6.52-5.73,10.56C135.5,83.59,134.96,91.98,141.06,91.98"></path>		<path d="M174.19,91.01h-0.12c-1.51,3.5-3.86,5.01-7.66,5.01c-6.46,0-8.33-4.17-8.33-10.02c0-9.24,9.06-9.66,16-9.48   c0.12-4.05,0.18-8.45-5.13-8.45c-3.32,0-5.07,2.23-4.77,5.43h-5.37c0.24-6.82,3.87-9.17,10.32-9.17c7.85,0,9.9,4.04,9.9,9.17   v14.67c0,2.41,0.24,4.89,0.6,7.24h-5.43V91.01z M163.03,86.36c0,2.96,1.45,5.62,4.77,5.62c3.02,0,6.76-1.87,6.28-11.71   C169.36,80.33,163.03,79.9,163.03,86.36"></path>		<path d="M203.17,64.93h4.95v24.15c0,2.11,0.12,4.22,0.3,6.34h-5.25v-3.68h-0.18c-1.63,2.78-4.53,4.29-7.73,4.29   c-5.31,0-8.21-2.66-8.21-7.85V64.93H192v21.13c0,3.69,1.69,6.16,5.19,6.16c2.65,0,5.98-1.99,5.98-7.06V64.93z"></path>		<path d="M230.21,95.42V74.29c0-3.08-0.84-5.91-4.83-5.91c-1.51,0-3.56,0.91-4.28,2.05c-0.9,1.51-1.15,3.32-1.15,4.47v20.52H215   V71.27c0-2.11-0.12-4.22-0.3-6.34h5.25v3.8h0.12c1.45-3.26,4.05-4.41,7.6-4.41c2.78,0,5.98,1.14,7.12,3.93   c1.69-3.26,4.47-3.93,7.24-3.93c3.2,0,8.33,0.72,8.33,7.91v23.18h-4.95V74.29c0-3.08-0.85-5.91-4.83-5.91   c-1.87,0-2.41,0.06-3.74,1.15c-1.45,1.21-1.69,4.23-1.69,5.37v20.52H230.21z"></path>		<path d="M272.7,91.01h-0.12c-1.51,3.5-3.86,5.01-7.66,5.01c-6.46,0-8.33-4.17-8.33-10.02c0-9.24,9.06-9.66,16-9.48   c0.12-4.05,0.18-8.45-5.13-8.45c-3.32,0-5.07,2.23-4.77,5.43h-5.37c0.24-6.82,3.86-9.17,10.32-9.17c7.85,0,9.9,4.04,9.9,9.17   v14.67c0,2.41,0.24,4.89,0.6,7.24h-5.43V91.01z M261.53,86.36c0,2.96,1.45,5.62,4.77,5.62c3.02,0,6.76-1.87,6.28-11.71   C267.87,80.33,261.53,79.9,261.53,86.36"></path>		<path d="M301.91,95.42V74.29c0-3.26-1.15-5.91-5.37-5.91c-5.43,0-6.22,4.83-6.22,9v18.05h-4.95V71.27c0-2.11-0.12-4.22-0.3-6.34   h5.25v3.92h0.24c1.93-3.44,4.22-4.53,8.15-4.53c6.52,0,8.15,3.93,8.15,9.96v21.13H301.91z"></path>		<path d="M330.28,95.42V74.29c0-3.26-1.14-5.91-5.37-5.91c-5.43,0-6.22,4.83-6.22,9v18.05h-4.95V71.27c0-2.11-0.12-4.22-0.3-6.34   h5.25v3.92h0.24c1.93-3.44,4.23-4.53,8.15-4.53c6.52,0,8.15,3.93,8.15,9.96v21.13H330.28z"></path>		<path d="M553.19,84.77l3.54-10.43l3.36,10.43H553.19z M560.64,64.93h-6.94h0v0.01l-11.52,30.48h7.41l1.75-5.16h10.49l1.69,5.16   h7.91L560.64,64.93z"></path>		<polygon points="536.29,95.42 536.29,70.88 545.48,70.88 545.48,64.93 520.34,64.93 520.34,70.88 529.34,70.88 529.34,95.42   "></polygon>		<polygon points="471.76,89.7 471.76,82.21 483.78,82.21 483.78,76.73 471.76,76.73 471.76,70.64 487.3,70.64 487.3,64.93    471.76,64.93 470.15,64.93 464.81,64.93 464.81,95.42 470.15,95.42 471.76,95.42 487.43,95.42 487.43,89.7   "></polygon>		<polygon points="461.89,70.65 461.89,64.93 446.21,64.93 445.53,64.93 439.27,64.93 439.27,95.42 446.21,95.42 446.21,82.67    459.6,82.67 459.6,77.18 446.21,77.18 446.21,70.65   "></polygon>		<path d="M421.54,78.37h-4.39v-7.68h4.94c2.01,0,2.92,0.14,3.84,0.51c1.32,0.5,2.1,1.69,2.1,3.24c0,1.55-0.78,2.74-2.15,3.38   C424.92,78.23,423.91,78.37,421.54,78.37 M426.65,82.67c5.21-0.59,8.23-3.79,8.23-8.68c0-3.66-1.65-6.58-4.48-7.95   c-1.73-0.87-3.43-1.1-8.73-1.1h-4.52h-1.05h-5.89v30.48h6.95V80.09l1.78,2.58l8.91,12.75h9L426.65,82.67z"></path>		<polygon points="391.37,89.7 391.37,82.21 403.39,82.21 403.39,76.73 391.37,76.73 391.37,70.64 406.91,70.64 406.91,64.93    391.37,64.93 390.32,64.93 384.42,64.93 384.42,95.42 390.32,95.42 391.37,95.42 407.05,95.42 407.05,89.7   "></polygon>		<path d="M370.54,78.43c0,3.9-2.44,5.98-7.08,5.98h-11.4V72.57h11.09C368.21,72.57,370.54,74.4,370.54,78.43 M379.94,78.49   c0-4.46-1.71-8.42-4.64-10.81c-2.57-2.08-5.25-2.75-11.29-2.75h-11.95h-1.6h-7.68v49.85l9.28-9.98V92.04h11.27   c5.92,0,8.18-0.37,10.69-1.89C377.68,88.01,379.94,83.56,379.94,78.49"></path>		<polygon points="364.43,95.42 355.39,95.42 355.39,114.79 364.43,104.93   "></polygon>		<polygon points="376.81,95.42 367.77,95.42 367.77,114.79 376.81,104.93   "></polygon>		<path d="M505.48,90.01L505.48,90.01c-0.11,0.01-0.46,0.01-0.72,0.02c-0.51,0.01-0.89,0-1.06-0.01v-0.01   c-4.6-0.27-6.88-3.57-6.88-9.93c0-5.23,1.49-8.12,4.8-9.24c0.72-0.3,1.95-0.49,3.36-0.49c0.83,0,1.59,0.07,2.23,0.18   c0.01,0,0.01,0,0.01,0c0.46,0.08,0.86,0.19,1.15,0.32c1.83,0.7,2.8,2.17,2.77,4.31l7.43-0.36c-0.13-5.95-4.99-10.15-11.96-10.41   c-0.57-0.03-1.18-0.05-1.81-0.05c-1.07,0-2.08,0.05-2.95,0.14c-2.11,0.2-3.76,0.69-5.43,1.56c-4.56,2.48-7.2,7.67-7.2,14.07   c0,5.41,2.01,10.15,5.47,12.95c2.29,1.8,4.69,2.67,8.19,2.86l0,0c0,0,0.75,0.07,1.97,0.06c1.11-0.01,1.7-0.06,1.72-0.06   c6.82-0.34,11.7-4.72,12-10.93l-7.52-0.32C510.9,88.12,508.94,89.97,505.48,90.01"></path>	</g></g></svg>