<svg xmlns="http://www.w3.org/2000/svg" xmlns:xlink="http://www.w3.org/1999/xlink" id="Capa_1" x="0px" y="0px" viewBox="0 0 305.24 141.73" style="enable-background:new 0 0 305.24 141.73;" xml:space="preserve"><g>	<g>		<g>			<path d="M70.66,88.79l-1.58,3.52c-4.85,2.67-10.26,4-16.26,4c-11.98,0-20.18-4.32-24.59-12.95c-2.05-4-3.07-8.33-3.07-12.99    c0-7.54,2.5-13.54,7.51-18.02c5.12-4.61,12.11-6.92,20.98-6.92c5.62,0,11.13,1.02,16.5,3.07l0.45,0.52    c-0.78,3.17-1.27,6.88-1.45,11.13l-0.31,0.34h-2.03l-0.35-0.38c-0.07-2.78-0.19-4.71-0.38-5.79c-2.87-3.23-7.01-4.85-12.43-4.85    c-5.58,0-9.95,1.76-13.12,5.3c-3.17,3.54-4.76,8.33-4.76,14.39c0,8.21,2.83,14.49,8.48,18.89c3.01,2.34,7.04,3.51,12.09,3.51    c4.59,0,9.08-1.19,13.48-3.55L70.66,88.79z"></path>			<path d="M129.8,69.36c0,8.48-2.46,15.12-7.4,19.94c-4.8,4.68-11.36,7.02-19.67,7.02c-7.85,0-14.02-2.2-18.5-6.63    c-4.48-4.42-6.72-10.57-6.72-18.44c0-11.05,4.21-18.7,12.64-22.95c3.83-1.93,8.55-2.89,14.16-2.89c8.02,0,14.26,2.1,18.7,6.31    C127.54,56,129.8,61.88,129.8,69.36z M119.2,71.16c0-6.66-1.35-11.95-4.02-15.86c-2.68-3.92-6.59-5.87-11.76-5.87    c-6.82,0-11.35,3.07-13.58,9.2c-1.15,3.14-1.72,6.67-1.72,10.57c0,7.11,1.31,12.7,3.92,16.81c2.71,4.24,6.77,6.37,12.16,6.37    c6.55,0,10.94-3.23,13.2-9.68C118.6,79.28,119.2,75.43,119.2,71.16z"></path>			<path d="M174.59,83.32c-0.51,3.35-0.76,7.14-0.76,11.37l-0.34,0.34l-25.04-0.2c-4.18,0-7.13,0.07-8.85,0.2l-0.35-0.34v-0.97    l0.17-0.41c1.7-1.08,2.62-1.75,2.76-2.03c0.21-0.41,0.34-1.93,0.38-4.58l0.1-7.71V61.51c0-5.47-0.14-9.03-0.45-10.68    c-0.11-0.67-0.5-1.09-1.17-1.28c-0.34-0.09-1.68-0.21-4.02-0.35l-0.35-0.34v-2.34l0.35-0.31c2.37,0.14,5.83,0.21,10.4,0.21    c4.73,0,8.32-0.07,10.78-0.21l0.34,0.31v2.38l-0.34,0.3c-2.34,0.14-3.68,0.26-4.03,0.35c-0.66,0.19-1.06,0.61-1.17,1.28    c-0.3,1.65-0.45,5.21-0.45,10.68v20.6c0,3.01,0.06,5.93,0.17,8.75h4.69c6.7,0,10.82-0.27,12.33-0.8    c0.25-0.09,0.44-0.22,0.55-0.37c0.24-0.32,0.46-1.01,0.66-2.07l0.83-4.26l0.34-0.38h2.09L174.59,83.32z"></path>			<path d="M218.74,83.32c-0.5,3.35-0.76,7.14-0.76,11.37l-0.35,0.34l-25.04-0.2c-4.18,0-7.13,0.07-8.84,0.2l-0.35-0.34v-0.97    l0.17-0.41c1.7-1.08,2.62-1.75,2.75-2.03c0.2-0.43,0.33-1.96,0.38-4.58l0.1-7.71V61.51c0-5.47-0.15-9.03-0.45-10.68    c-0.11-0.67-0.5-1.09-1.17-1.28c-0.34-0.09-1.68-0.21-4.03-0.35l-0.35-0.34v-2.34l0.35-0.31c2.32,0.14,5.9,0.21,10.74,0.21    c4.32,0,12.53-0.07,24.63-0.21l0.38,0.28l-0.46,3.82c-0.14,1.22-0.24,2.25-0.3,3.1l-0.24,3.21L215.57,57h-1.99l-0.35-0.35    c-0.02-3.12-0.21-4.89-0.55-5.33c-0.25-0.32-1.48-0.58-3.7-0.76c-2.22-0.19-4.16-0.27-5.84-0.27c-1.99,0-4.02,0.08-6.06,0.24    c-0.25,2.41-0.38,5.75-0.38,10.03v7.13c1.81,0.12,3.28,0.18,4.41,0.18l4.51-0.03c2.11-0.03,3.3-0.2,3.59-0.52    c0.36-0.41,0.61-1.97,0.72-4.65l0.34-0.34h2.14l0.35,0.34c-0.1,2.57-0.15,4.93-0.15,7.06c0,2.32,0.05,4.86,0.15,7.61l-0.35,0.31    h-2.31l-0.34-0.34c0-2.64-0.19-4.21-0.55-4.7c-0.37-0.49-1.49-0.82-3.35-0.98c-1.4-0.11-2.88-0.17-4.48-0.17    c-1.67,0-3.24,0.06-4.68,0.17v10.51c0,3.01,0.05,5.93,0.17,8.75h4.68c6.71,0,10.82-0.27,12.33-0.8c0.26-0.09,0.44-0.22,0.56-0.37    c0.23-0.32,0.45-1.01,0.66-2.07l0.83-4.26l0.34-0.38h2.1L218.74,83.32z"></path>			<path d="M268.55,94.57l-0.35,0.35l-7.03-0.1c-1.15-0.02-3.16,0.02-6.03,0.1c-0.69-0.85-1.81-2.72-3.38-5.61l-7.17-13.26    l-2.72,3.9c-3.45,4.94-6.64,9.93-9.58,14.98c-1.06-0.07-2.11-0.1-3.17-0.1c-2.13,0-3.69,0.04-4.69,0.1l-0.34-0.35v-2.2l0.34-0.38    c1.89-0.14,3.03-0.33,3.42-0.58c0.69-0.43,2.25-2.3,4.68-5.62l4.52-6.09c0.19-0.23,2.02-2.71,5.51-7.44l-2.62-4.61l-4.19-7.27    c-2.99-5.13-5.26-8.18-6.83-9.12c-0.52-0.32-1.08-0.48-1.65-0.48c-0.46,0-1.16,0.03-2.13,0.1l-0.45-0.34l-0.28-1.82l0.31-0.52    c3.24-0.66,7.41-1.58,12.5-2.75c1.45,0.94,2.94,2.65,4.47,5.1c0.73,1.19,1.89,3.24,3.45,6.13l3.89,7.24l4.48-6.55    c3.7-5.42,6.09-9.11,7.19-11.06c0.94,0.1,1.87,0.14,2.79,0.14c1.54,0,3.1-0.04,4.69-0.14l0.35,0.35v2.27l-0.35,0.34    c-1.58,0.02-2.63,0.2-3.15,0.51c-0.52,0.32-1.53,1.41-3.02,3.27c-1.49,1.86-3.46,4.44-5.89,7.76c-1.35,1.84-3,4.12-4.96,6.85    c1.15,2.11,2.79,5.09,4.93,8.92l4.41,7.58c2.43,4.18,3.97,6.54,4.6,7.08c0.63,0.54,1.65,0.81,3.08,0.81l0.35,0.34V94.57z"></path>		</g>		<path d="M276.02,53.5c-2.23,0-4.05-1.81-4.05-4.05c0-2.23,1.82-4.05,4.05-4.05c2.24,0,4.06,1.82,4.06,4.05   C280.07,51.68,278.26,53.5,276.02,53.5z M276.02,45.93c-1.94,0-3.52,1.58-3.52,3.51c0,1.94,1.58,3.52,3.52,3.52   c1.95,0,3.52-1.58,3.52-3.52C279.54,47.51,277.96,45.93,276.02,45.93z M274.32,51.55v-4.2h1.85c0.39,0,0.66,0.04,0.86,0.12   c0.19,0.08,0.36,0.2,0.47,0.4c0.11,0.18,0.17,0.4,0.17,0.62c0,0.3-0.09,0.55-0.28,0.76c-0.19,0.2-0.5,0.34-0.9,0.4   c0.14,0.07,0.26,0.14,0.33,0.21c0.17,0.14,0.31,0.33,0.46,0.55l0.72,1.15h-0.68l-0.57-0.89c-0.16-0.25-0.28-0.44-0.39-0.56   c-0.11-0.15-0.21-0.25-0.29-0.29c-0.07-0.06-0.16-0.1-0.25-0.12c-0.06-0.01-0.17-0.02-0.3-0.02h-0.64v1.88H274.32z M274.89,49.21   h1.18c0.26,0,0.45-0.02,0.58-0.09c0.16-0.05,0.27-0.12,0.33-0.25c0.08-0.11,0.12-0.24,0.12-0.38c0-0.18-0.07-0.34-0.22-0.47   c-0.14-0.14-0.37-0.2-0.68-0.2h-1.32V49.21z"></path>	</g></g></svg>