<svg xmlns="http://www.w3.org/2000/svg" xmlns:xlink="http://www.w3.org/1999/xlink" id="Capa_1" x="0px" y="0px" viewBox="0 0 549.43 141.73" style="enable-background:new 0 0 549.43 141.73;" xml:space="preserve"><style type="text/css">	.st0{enable-background:new    ;}</style><g>	<g>		<g id="surface2_1_" transform="matrix(1,0,0,1,0,0)">			<path d="M35.23,99.25c-0.06,0.64,0.28,1.82,0.9,3.53c0.66,1.7,1.52,3.53,2.63,5.45c1.21,1.95,2.27,3.29,3.19,4.08    c0.93,0.78,1.43,0.83,1.5,0.16c-0.03-0.98-0.47-2.37-1.3-4.16c-0.88-1.8-1.91-3.64-3.1-5.44c-1.12-1.74-2.02-2.93-2.63-3.62    C35.74,98.54,35.33,98.54,35.23,99.25 M46.16,109.96c-0.03,1.23,0.48,2.8,1.51,4.64c1.04,1.84,2.39,3.55,4.1,5.11    c1.79,1.52,3.35,2.32,4.64,2.42c1.33,0.09,2.04-0.52,2.14-1.87c0-1.58-0.62-3.33-1.89-5.27c-1.23-1.91-2.74-3.64-4.53-5.13    c-1.71-1.26-3.13-1.91-4.21-1.91C46.8,107.99,46.22,108.66,46.16,109.96 M62.63,113.55c-0.09,1.93,0.55,3.9,1.93,5.89    c1.44,1.98,3.28,3.48,5.53,4.51c2.41,0.99,4.49,1.14,6.24,0.41c1.79-0.76,2.84-2.15,3.1-4.17c0.25-2.32-0.44-4.51-1.99-6.57    c-1.53-2.13-3.54-3.66-6.03-4.6c-2.35-0.76-4.34-0.7-5.99,0.15C63.73,110.03,62.81,111.49,62.63,113.55 M85.72,108.71    c-0.28,2.68,0.37,5.04,1.95,7.13c1.61,2.08,3.8,3.34,6.56,3.81c1.85,0.22,3.63,0.02,5.33-0.63c1.68-0.65,3.05-1.61,4.21-2.98    c1.15-1.31,1.94-2.86,2.28-4.61c0.46-2.96-0.11-5.51-1.72-7.67c-1.6-2.22-3.89-3.56-6.85-4.01c-2.94-0.31-5.52,0.43-7.73,2.13    C87.51,103.51,86.19,105.81,85.72,108.71 M114.22,96.07c-0.57,3.18-0.08,5.83,1.44,7.94c1.56,2.12,3.82,3.19,6.7,3.19    c1.85-0.1,3.64-0.62,5.34-1.6c1.69-1,3.16-2.32,4.37-3.92c1.18-1.62,2.03-3.41,2.46-5.36c0.62-3.08,0.21-5.73-1.23-7.94    c-1.41-2.16-3.58-3.36-6.42-3.56c-1.95-0.11-3.83,0.32-5.63,1.29c-1.72,0.96-3.24,2.34-4.47,4.08    C115.49,91.88,114.64,93.86,114.22,96.07 M142.44,80.6c-0.57,3.12-0.21,5.68,1.03,7.65c1.24,1.98,3.07,2.93,5.48,2.84    c2.25-0.18,4.3-1.2,6.14-3.05c1.8-1.89,3.03-4.11,3.69-6.69c0.44-2.6,0.13-4.91-0.92-6.94c-1.09-1.97-2.64-3.18-4.77-3.58    c-2.41-0.36-4.6,0.43-6.64,2.27C144.46,74.96,143.12,77.44,142.44,80.6 M164.55,69.04c-0.41,2.44-0.21,4.52,0.64,6.2    c0.77,1.77,1.96,2.75,3.54,2.99c1.4,0.08,2.7-0.41,3.87-1.51c1.14-1.07,1.89-2.48,2.26-4.23c0.29-1.76,0.12-3.48-0.49-5.2    c-0.58-1.68-1.52-2.93-2.83-3.8c-1.51-0.77-2.96-0.62-4.29,0.43C165.93,64.95,165,66.64,164.55,69.04 M182.05,64.83    c0.65,1.25,1.05,2.52,1.19,3.86c0.18,1.37,0.16,2.47-0.09,3.34c-0.21,0.82-0.59,1.29-1.16,1.43c-0.5,0.18-1.09,0-1.7-0.55    c-0.76-0.64-1.34-1.67-1.76-3.04c-0.43-1.44-0.5-2.91-0.27-4.42c0.31-1.44,0.86-2.18,1.61-2.27    C180.64,63.02,181.38,63.57,182.05,64.83"></path>			<path d="M30.54,78.86c-0.15,0.53-0.12,1.61,0.07,3.16c0.16,1.58,0.46,3.33,0.96,5.27c0.57,1.85,1.16,3.18,1.72,3.91    c0.52,0.69,0.82,0.62,0.97-0.2c0.06-0.96-0.11-2.27-0.48-3.94c-0.38-1.63-0.83-3.25-1.4-4.81c-0.45-1.48-0.83-2.53-1.18-3.19    C30.91,78.41,30.67,78.36,30.54,78.86 M36.19,88.3c-0.09,1.25,0.16,2.79,0.73,4.66c0.53,1.84,1.33,3.58,2.39,5.18    c1.15,1.58,2.19,2.35,3.12,2.35c0.92,0,1.44-0.77,1.6-2.35c0.08-1.74-0.26-3.63-1.05-5.59c-0.75-1.95-1.69-3.53-2.83-4.78    c-1.06-1.06-1.94-1.54-2.61-1.44C36.79,86.41,36.35,87.07,36.19,88.3 M47.35,90.59c-0.19,2.07,0.2,4.17,1.15,6.3    c1,2.17,2.34,3.86,4.09,5.04c1.85,1.16,3.5,1.31,4.93,0.5c1.41-0.88,2.28-2.53,2.55-4.93c0.15-1.7-0.03-3.39-0.48-5.03    c-0.52-1.61-1.24-3.07-2.21-4.31c-0.93-1.21-2.05-2.13-3.34-2.67c-1.74-0.65-3.26-0.5-4.48,0.46    C48.31,86.95,47.55,88.48,47.35,90.59 M65.52,84.82c-0.21,1.87-0.04,3.71,0.49,5.5c0.5,1.76,1.35,3.28,2.55,4.56    c1.15,1.33,2.54,2.21,4.15,2.71c2.58,0.62,4.9,0.05,6.99-1.66c2.03-1.68,3.34-4.13,3.89-7.35c0.32-2.2,0.21-4.23-0.37-6.12    c-0.59-1.91-1.54-3.49-2.81-4.78c-1.24-1.26-2.75-2.02-4.51-2.35c-2.55-0.27-4.77,0.49-6.7,2.3    C67.25,79.36,66.01,81.75,65.52,84.82 M91.46,71.8c-0.37,2.31-0.25,4.46,0.34,6.44c0.65,1.98,1.67,3.6,3.05,4.88    c1.4,1.32,3.08,2.1,5.04,2.38c1.99,0.17,3.89-0.22,5.69-1.18c1.8-0.92,3.33-2.3,4.64-4.06c1.32-1.83,2.15-3.89,2.62-6.23    c0.38-2.36,0.26-4.52-0.34-6.51c-0.62-1.98-1.61-3.64-3.03-4.98c-1.4-1.28-3.09-2.03-5.13-2.2c-1.98-0.19-3.87,0.22-5.69,1.16    c-1.77,0.96-3.33,2.36-4.64,4.14C92.76,67.46,91.93,69.5,91.46,71.8 M121.33,56.75c-0.35,2.25-0.25,4.36,0.36,6.34    c0.57,1.94,1.58,3.55,2.97,4.85c1.4,1.29,3.05,2.08,4.98,2.35c1.85,0.17,3.61-0.16,5.26-0.96c1.63-0.84,3.05-2.06,4.22-3.68    c1.19-1.61,1.97-3.44,2.34-5.51c0.31-2.02,0.2-3.97-0.4-5.81c-0.62-1.84-1.53-3.43-2.79-4.76c-1.29-1.29-2.82-2.15-4.64-2.56    c-1.88-0.36-3.65-0.17-5.37,0.55c-1.7,0.74-3.19,1.9-4.42,3.46C122.63,52.62,121.79,54.53,121.33,56.75 M148.24,46.28    c-0.25,1.86-0.09,3.67,0.43,5.42c0.5,1.69,1.29,3.2,2.43,4.49c1.09,1.24,2.42,2.12,3.92,2.62c2.17,0.6,4.05,0.36,5.69-0.76    c1.61-1.12,2.61-2.84,2.97-5.16c0.2-1.5,0.04-2.99-0.41-4.52c-0.41-1.55-1.13-3-2.16-4.27c-0.96-1.35-2.12-2.38-3.41-3.13    c-2.28-1.1-4.3-1.15-6.05-0.13C149.84,41.86,148.7,43.68,148.24,46.28 M168.04,44.38c-0.13,1.9,0.25,3.92,1.14,6    c0.88,2.03,2.07,3.69,3.55,4.99c1.34,1.05,2.5,1.48,3.46,1.3c0.99-0.2,1.59-0.97,1.88-2.35c0.12-1.39-0.15-3.08-0.78-5.04    c-0.71-2-1.7-3.78-3.05-5.4c-1.41-1.6-2.74-2.38-3.94-2.28C169.1,41.67,168.34,42.6,168.04,44.38 M184.29,54.73    c0.62,2.03,1.05,3.91,1.24,5.61c0.24,1.75,0.24,2.92,0,3.52c-0.19,0.6-0.5,0.57-0.91-0.08c-0.41-0.64-0.96-1.72-1.59-3.22    c-0.69-1.67-1.32-3.4-1.8-5.19c-0.46-1.8-0.63-3.27-0.49-4.37c0.19-0.96,0.64-1.1,1.31-0.35    C182.74,51.36,183.49,52.7,184.29,54.73"></path>			<path d="M32.25,71.39c-0.18,0.8-0.21,1.83-0.04,3.11c0.11,1.25,0.39,2.49,0.82,3.66c0.56,1.2,1.09,1.79,1.66,1.74    c0.55-0.08,0.95-0.77,1.15-2.02c0.2-1.43,0.13-2.77-0.19-4.06c-0.26-1.34-0.69-2.37-1.24-3.06    C33.43,69.7,32.72,69.91,32.25,71.39 M38.42,71.53c-0.24,1.6-0.13,3.21,0.34,4.83c0.46,1.56,1.21,2.75,2.23,3.61    c1.18,0.76,2.32,0.71,3.36-0.22c1.02-0.88,1.71-2.43,2.1-4.63c0.31-2.28,0.15-4.21-0.49-5.88c-0.66-1.61-1.61-2.55-2.83-2.82    c-1.13-0.13-2.09,0.27-2.98,1.24C39.31,68.68,38.75,69.96,38.42,71.53 M51.15,63.73c-0.47,2.42-0.25,4.58,0.62,6.47    c0.82,1.91,2.14,3.08,3.94,3.53c1.97,0.35,3.82-0.36,5.54-2.07c1.68-1.7,2.85-4.05,3.44-7.05c0.5-3.01,0.26-5.44-0.74-7.39    c-1.07-1.9-2.61-2.79-4.64-2.7c-1.9,0.22-3.61,1.2-5.13,2.9C52.65,59.15,51.62,61.24,51.15,63.73 M71.89,49.35    c-0.6,3-0.29,5.56,0.96,7.68c1.25,2.08,3.12,3.22,5.68,3.46c1.8,0.08,3.53-0.35,5.17-1.3c1.67-0.97,3.15-2.35,4.38-4.1    c1.23-1.71,2.12-3.67,2.63-5.87c0.58-3.23,0.19-5.86-1.19-7.88c-1.39-2.05-3.44-3.03-6.17-2.99c-2.6,0.27-4.98,1.46-7.12,3.54    C74.08,43.95,72.62,46.46,71.89,49.35 M99.22,33.5c-0.63,3-0.17,5.57,1.37,7.76c1.51,2.17,3.76,3.42,6.71,3.8    c1.98,0.12,3.85-0.2,5.62-0.97c1.79-0.82,3.29-2.01,4.56-3.54c1.22-1.5,2.08-3.28,2.47-5.27c0.41-2.8-0.13-5.23-1.66-7.24    c-1.56-2.08-3.77-3.29-6.63-3.61c-1.88-0.12-3.71,0.2-5.46,0.98c-1.71,0.77-3.18,1.85-4.45,3.25    C100.52,30.09,99.66,31.71,99.22,33.5 M127.48,22.94c-0.4,2.39,0.16,4.64,1.72,6.78c1.58,2.12,3.76,3.6,6.52,4.43    c2.68,0.64,4.99,0.46,6.98-0.55c1.95-1.02,3.09-2.63,3.46-4.84c0.26-2.15-0.38-4.18-1.86-6.18c-1.49-2-3.48-3.42-6.02-4.35    c-2.63-0.81-4.96-0.81-6.96,0.07C129.21,19.17,127.95,20.72,127.48,22.94 M151.63,21.12c-0.2,1.71,0.43,3.55,1.78,5.54    c1.33,2.01,3.12,3.71,5.27,5.11c2.04,1.23,3.74,1.81,5.13,1.73c1.38-0.15,2.14-0.92,2.27-2.35c0.13-1.4-0.38-3.05-1.53-4.97    c-1.13-1.89-2.73-3.61-4.75-5.15c-2.08-1.46-3.91-2.2-5.48-2.2C152.72,18.89,151.8,19.63,151.63,21.12 M175.56,32.12    c1.4,1.98,2.46,3.88,3.25,5.75c0.73,1.84,1.06,3.13,0.91,3.86c-0.1,0.79-0.56,0.84-1.46,0.15c-0.86-0.71-2.02-1.91-3.39-3.66    c-1.42-1.91-2.68-3.81-3.67-5.66c-0.94-1.9-1.42-3.39-1.38-4.44c0.15-0.85,0.79-0.88,1.95-0.13    C172.85,28.71,174.14,30.09,175.56,32.12"></path>		</g>		<g id="surface4_1_">			<g class="st0">				<path d="M254.9,63.73v21.3c-2.4,2.31-5.15,4.08-8.17,5.25c-3.06,1.21-6.32,1.81-9.83,1.81c-3.55,0-6.83-0.6-9.91-1.81     c-3.05-1.16-5.8-2.93-8.2-5.25c-2.58-2.45-4.6-5.33-6.06-8.72c-1.48-3.39-2.18-6.87-2.18-10.44c0-3.14,0.59-6.22,1.72-9.23     c1.13-2.98,2.79-5.7,4.9-8.16c2.45-2.87,5.36-5.06,8.72-6.56c3.36-1.49,7.02-2.27,10.99-2.27c3.28,0,6.39,0.55,9.29,1.6     c2.91,1.08,5.52,2.67,7.94,4.75l-2.88,3.28c-2.12-1.8-4.4-3.17-6.8-4.08c-2.43-0.89-4.93-1.35-7.56-1.35     c-6.12,0-11.27,2.12-15.48,6.35c-4.21,4.22-6.32,9.45-6.32,15.67c0,6.22,2.11,11.45,6.32,15.66c4.2,4.18,9.33,6.29,15.42,6.29     c2.47,0,4.87-0.4,7.18-1.21c2.28-0.79,4.46-1.98,6.53-3.55V67.99h-16.91l1.66-4.26H254.9z"></path>				<path d="M262.5,91.88V40.8h8.24c4.87,0,8.74,1.34,11.63,4.05c2.93,2.68,4.39,6.28,4.39,10.76c0,3.83-1.09,7.03-3.25,9.63     c-2.17,2.59-5.09,4.17-8.73,4.7l15.47,19.22l-4.04,2.53l-19.33-25.32l3.5,0.08c3.66,0,6.51-0.93,8.54-2.82     c2.05-1.88,3.06-4.5,3.06-7.89c0-3.36-1.01-5.97-3.06-7.86c-2.04-1.88-4.88-2.83-8.54-2.83h-3.5v45.93L262.5,91.88z"></path>				<path d="M288.9,90.26l26.29-51.01l25.7,50.9l-4.34,1.33l-10.41-20.64h-22.38l-10.61,20.64L288.9,90.26z M305.97,66.64h18.13     L315,48.56L305.97,66.64z"></path>				<path d="M343.35,91.47V40.8h21.2l1.06,4.32h-17.85v18.46h14v4.27h-14v23.14L343.35,91.47z"></path>				<path d="M370.48,90.97V40.8h26.88l1.03,4.2h-23.51V63.3h19.93v4.1h-19.93v19.33h24.57l-0.99,4.24H370.48z"></path>				<path d="M403.16,91.88l-3.95-1.57l18.24-26.36l-16.24-21.98l3.78-2.15l15.04,20.41l14.45-20.41l3.87,1.95l-15.67,22.11     l18.75,25.65l-4.05,2.37l-17.42-24.25L403.16,91.88z"></path>				<path d="M444.52,40.8l4.55-0.66v32.37c0,5.56,0.97,9.48,2.96,11.72c1.98,2.27,5.29,3.39,9.93,3.39c4.66,0,7.95-1.11,9.93-3.35     c1.99-2.24,2.99-6.16,2.99-11.76V40.8l4.61-0.66v32.44c0,3.98-0.28,6.98-0.87,9c-0.58,2.05-1.58,3.79-2.97,5.29     c-1.46,1.63-3.37,2.87-5.79,3.78c-2.4,0.91-5.06,1.37-7.9,1.37c-2.86,0-5.48-0.45-7.92-1.37c-2.41-0.91-4.36-2.15-5.8-3.78     c-1.32-1.45-2.28-3.17-2.86-5.18c-0.57-2.01-0.86-5.04-0.86-9.1V40.8z"></path>				<path d="M489.43,80.44c1.5,2.4,3.26,4.2,5.27,5.42c2.03,1.2,4.32,1.8,6.84,1.8c3.22,0,5.91-0.91,8.04-2.77     c2.12-1.88,3.17-4.22,3.17-7.06c0-4.71-4.02-8.27-12.05-10.68c-0.83-0.25-1.47-0.43-1.89-0.58c-4.11-1.23-7.11-2.92-9.01-5.05     c-1.91-2.13-2.86-4.88-2.86-8.22c0-3.78,1.41-6.98,4.25-9.61c2.87-2.65,6.46-3.95,10.78-3.95c2.64,0,5,0.46,7.13,1.39     c2.14,0.95,4.28,2.46,6.42,4.55l-2.93,3.43c-1.95-1.86-3.73-3.16-5.42-3.94c-1.67-0.77-3.5-1.17-5.51-1.17     c-2.82,0-5.2,0.93-7.15,2.73c-1.98,1.84-2.97,4.05-2.97,6.66c0,1.61,0.4,3.03,1.14,4.27c0.76,1.2,1.93,2.22,3.46,3.08     c1.19,0.63,3.28,1.38,6.33,2.26c1.66,0.48,2.93,0.86,3.83,1.15c3.69,1.26,6.46,3.01,8.32,5.21c1.88,2.22,2.81,4.92,2.81,8.04     c0,4.15-1.5,7.63-4.52,10.42c-3,2.8-6.82,4.18-11.45,4.18c-3.19,0-6.16-0.78-8.83-2.33c-2.72-1.55-4.98-3.73-6.8-6.61     L489.43,80.44z"></path>			</g>		</g>	</g></g></svg>