<svg xmlns="http://www.w3.org/2000/svg" xmlns:xlink="http://www.w3.org/1999/xlink" id="Capa_1" x="0px" y="0px" viewBox="0 0 426.57 141.73" style="enable-background:new 0 0 426.57 141.73;" xml:space="preserve"><g>	<path d="M197.36,72.87c-0.1,0.58-0.73,0.28-0.73,0.28s-3.16-1.8-7.37-1.93c0,0-3.77-0.12-6.33,2.04c0,0-2.07,1.42-2.24,4.3v14.48  c0,0,0,0.44-0.52,0.54h-19.8c-0.48-0.14-0.46-0.56-0.46-0.56V60.28c0,0,0.02-0.44,0.57-0.56l19.65,0.02c0,0,0.44-0.02,0.56,0.43  v5.53c0,0,0.17,0.43,0.69,0.07c0,0,2.09-1.8,3.23-2.96c0,0,1.47-1.33,2.97-2.11c0,0,1.38-0.78,3.5-1.3  c1.45-0.31,2.66-0.46,5.13-0.35c0,0,1.18,0.06,1.15,0.76V72.87 M360.56,59.8H341c0,0-0.59,0-0.67,0.61v31.68  c0,0,0.04,0.46,0.63,0.56h19.71c0,0,0.46-0.09,0.52-0.58V73.81c0,0-0.06-4.6,4.65-5.01c0,0,4.32-0.05,4.76,4.78v18.52  c0,0,0.06,0.62,0.48,0.65H391c0,0,0.4-0.2,0.42-0.52V68.08c0,0-0.12-3-3.48-5.44c0,0-3.39-3.03-11-3.3c0,0-2.77-0.05-4.84,0.26  c0,0-4.17,0.57-7.31,2.68c0,0-1.76,1.12-3.06,2.93c0,0-0.54,0.23-0.57-0.19v-4.56C361.17,60.45,361.19,59.83,360.56,59.8   M205.1,48.38c-3.23,0.76-3.06,3.54-3.06,3.54c0.08,3.11,3.04,3.52,3.04,3.52h15.35c3.12-0.65,3.06-3.41,3.06-3.41  c-0.04-3.27-3.06-3.66-3.06-3.66H205.1 M223.18,92.09V60.48c0-0.35-0.29-0.63-0.63-0.63h-19.59c-0.36,0-0.63,0.28-0.63,0.63v31.61  c0,0.34,0.27,0.62,0.63,0.62h19.59C222.88,92.72,223.18,92.44,223.18,92.09 M95.13,48.21H71.79c-0.36,0-0.63,0.29-0.63,0.63V63.2  c-0.02,0.33-0.3,0.6-0.63,0.6H60.38c-0.34,0-0.61-0.27-0.63-0.6V48.84c0-0.34-0.27-0.63-0.61-0.63H35.78  c-0.36,0-0.63,0.29-0.63,0.63v43.32c0,0.34,0.27,0.62,0.63,0.62h23.36c0.34,0,0.61-0.28,0.61-0.62V75.1  c0.02-0.33,0.29-0.6,0.63-0.6h10.16c0.34,0,0.61,0.27,0.63,0.6v17.06c0,0.34,0.27,0.62,0.63,0.62h23.34c0.36,0,0.63-0.28,0.63-0.62  V48.84C95.76,48.49,95.49,48.21,95.13,48.21 M246.09,67.99c0.31,0,0.38,0.36,0.19,0.56l-17.31,15.2c-0.27,0.23-0.33,0.44-0.33,0.78  v2.77l-0.02,2.96v1.9c0,0.34,0.3,0.62,0.63,0.62h47.39c0.36,0,0.63-0.28,0.63-0.62v-8.39c0-0.34-0.27-0.63-0.63-0.63l-17.39,0.01  c-0.31,0-0.4-0.45-0.14-0.7l17.34-15.58c0.25-0.23,0.38-0.47,0.38-0.82v-5.58c0-0.34-0.27-0.63-0.63-0.63h-46.32  c-0.34,0-0.63,0.28-0.63,0.63v6.88c0,0.35,0.29,0.63,0.63,0.63L246.09,67.99 M155.05,72.26c0.19,2.48,0.12,6,0.12,6  c-0.25,5.13-1.72,7.3-1.72,7.3c-3.67,6.13-9.07,6.87-9.07,6.87c-5.82,1.11-16.74,1.09-16.74,1.09  c-11.63-0.09-16.34-1.04-16.34-1.04c-6.43-1.44-9.24-6.92-9.24-6.92c-1.78-3.04-1.67-7.3-1.67-7.3c-0.17-3.91,0.13-6.04,0.13-6.04  c0.27-4.48,3-7.43,3-7.43c3.12-3.76,7.04-4.57,7.04-4.57s3.75-1.22,17.07-1.35c13.91,0.13,17.37,1.35,17.37,1.35  c4.06,0.96,7.06,4.59,7.06,4.59C154.57,67.54,155.05,72.26,155.05,72.26 M133.53,79.91c0,0,0.36-5.65-0.04-8.33  c0,0-0.33-3.49-1.46-4.97c0,0-1.38-2.05-4.36-2.16c0,0-2.68-0.01-4.17,2.15c0,0-0.88,0.92-1.42,4.97c0,0-0.44,4.41-0.06,8.35  c0,0,0.17,3.25,1.51,5.19c0,0,1.47,1.92,4.15,2.02c0,0,2.68,0.08,4.29-2.02C131.96,85.11,133.13,84.07,133.53,79.91 M335.7,72.26  c0.19,2.48,0.15,6,0.15,6c-0.27,5.13-1.72,7.3-1.72,7.3c-3.69,6.13-9.09,6.87-9.09,6.87c-5.83,1.11-16.74,1.09-16.74,1.09  c-11.63-0.09-16.34-1.04-16.34-1.04c-6.43-1.44-9.24-6.92-9.24-6.92c-1.78-3.04-1.67-7.3-1.67-7.3c-0.17-3.91,0.12-6.04,0.12-6.04  c0.27-4.48,3-7.43,3-7.43c3.12-3.76,7.04-4.57,7.04-4.57s3.75-1.22,17.08-1.35c13.91,0.13,17.37,1.35,17.37,1.35  c4.06,0.96,7.06,4.59,7.06,4.59C335.21,67.54,335.7,72.26,335.7,72.26 M314.18,79.91c0,0,0.38-5.65-0.04-8.33  c0,0-0.34-3.49-1.47-4.97c0,0-1.38-2.05-4.36-2.16c0,0-2.66-0.01-4.17,2.15c0,0-0.88,0.92-1.43,4.97c0,0-0.44,4.41-0.04,8.35  c0,0,0.14,3.25,1.49,5.19c0,0,1.47,1.92,4.15,2.02c0,0,2.68,0.08,4.29-2.02C312.61,85.11,313.78,84.07,314.18,79.91"></path></g></svg>