<svg xmlns="http://www.w3.org/2000/svg" xmlns:xlink="http://www.w3.org/1999/xlink" id="Capa_1" x="0px" y="0px" viewBox="0 0 189.11 141.73" style="enable-background:new 0 0 189.11 141.73;" xml:space="preserve"><g>	<path d="M164.04,133.64H25.07V8.1h138.97V133.64z M127.99,54.63c0-2.14,1.06-3.25,3.52-3.25c2.46,0,3.54,1.11,3.54,3.25  c0,2.36-1.08,3.55-3.54,3.55C129.06,58.19,127.99,56.99,127.99,54.63z M134.73,70.58c0,2.12-0.78,3.41-2.67,3.41h-3.46v-6.48h3.46  C133.94,67.51,134.73,68.5,134.73,70.58z M53.11,74.53c-0.57-0.81-1.46-2.03-1.46-3.24c0-0.97,0.24-1.87,0.73-2.6l28.38-39.32  c0.24-0.32,0.32-0.73,0.32-1.21c0-1.22-0.97-2.19-2.19-2.19H49.46c-3.57,0-6.49,3.08-6.49,6.65v76.62c0,3.65,2.92,6.57,6.49,6.57  c0,0,28.95,0,29.43,0c1.22,0,2.19-0.97,2.19-2.19c0-0.48-0.16-0.97-0.41-1.38L53.11,74.53z M131.52,83.24l1.95,4.86h-3.91  L131.52,83.24z M139.79,25.96h-29.27c-2.68,0-4.37,1.22-6.57,3.08L55.22,70.39c-0.25,0.24-0.32,0.49-0.32,0.81  c0,0.32,0.08,0.57,0.32,0.81l50.02,41.92c1.38,1.14,3.33,1.87,5.27,1.87h29.19c3.65,0,6.57-2.92,6.57-6.57V32.61  C146.27,29.04,143.35,25.96,139.79,25.96z M125.78,44.39h2.78v-5.01l5.11,5.01h3.97l-5.8-5.46l5.59-5.47h-3.87l-5,5.02v-5.02h-2.78  V44.39z M125.18,54.63c0,3.64,2.18,5.88,6.35,5.88c4.15,0,6.35-2.24,6.35-5.88c0-3.71-2.27-5.59-6.35-5.59  C127.45,49.04,125.18,50.92,125.18,54.63z M132.04,65.19h-6.25v11.04h6.25c3.91,0,5.49-2.12,5.49-5.66  C137.53,67.02,135.95,65.19,132.04,65.19z M137.63,108.02l-5.8-5.46l5.41-5.47h-3.69l-5,5.02v-5.02h-2.78v10.93h2.78v-5.01  l5.11,5.01H137.63z M138.15,92.13L133.42,81h-3.66l-4.74,11.13h2.96l0.76-1.93h5.55l0.78,1.93H138.15z"></path></g></svg>