<svg xmlns="http://www.w3.org/2000/svg" xmlns:xlink="http://www.w3.org/1999/xlink" id="Capa_1" x="0px" y="0px" viewBox="0 0 356.33 141.73" style="enable-background:new 0 0 356.33 141.73;" xml:space="preserve"><g>	<polygon points="71.11,77.33 71.11,43.75 57.24,43.75 15.66,103.82 32.29,103.82 56.78,68.45 56.78,98.05  "></polygon>	<rect x="318.32" y="57.61" width="13.87" height="46.21"></rect>	<rect x="117.77" y="57.61" width="13.87" height="46.21"></rect>	<polygon points="314.16,57.61 297.52,57.61 281.35,77.38 281.35,57.61 267.5,57.61 267.5,103.82 281.35,103.82 281.35,79.79   281.35,78.67 297.52,103.82 314.16,103.82 297.52,77.96  "></polygon>	<polygon points="112.24,103.82 112.24,43.75 98.37,43.75 56.78,103.82 73.42,103.82 97.9,68.45 97.9,103.82  "></polygon>	<path d="M206.5,74.71c0-9.95-8.07-18.02-18.02-18.02c-5.38,0-10.19,2.35-13.5,6.06c-3.04-3.7-7.68-6.06-12.84-6.06  c-4.26,0-8.14,1.6-11.1,4.23v-3.31h-13.87v46.21h13.87v-26.8c0-3.83,3.11-6.93,6.93-6.93c3.83,0,6.94,3.1,6.94,6.93v26.8h13.86  v-26.8c0-3.83,3.11-6.93,6.93-6.93c3.84,0,6.93,3.1,6.93,6.93v26.8h13.87V74.71"></path>	<path d="M248.08,103.82h13.87V57.61h-13.87v3.92c-3.97-3.04-8.93-4.84-14.33-4.84c-13,0-23.57,10.55-23.57,23.57  c0,13.01,10.56,23.56,23.57,23.56h10.64v-13.4h-10.17c-5.87,0-10.63-4.76-10.63-10.63c0-5.87,4.76-10.62,10.63-10.62h1.39  c6.89,0,12.47,5.58,12.47,12.47V103.82"></path>	<g>		<path d="M341.2,52.3c-2.94,0-5.32,2.38-5.32,5.32c0,2.94,2.38,5.32,5.32,5.32c2.94,0,5.32-2.38,5.32-5.32   C346.53,54.68,344.15,52.3,341.2,52.3 M341.2,62.24c-2.55,0-4.62-2.07-4.62-4.63c0-2.55,2.07-4.62,4.62-4.62   c2.56,0,4.63,2.07,4.63,4.62C345.83,60.17,343.76,62.24,341.2,62.24"></path>	</g>	<path d="M341.91,58.31c1.01,0,1.84-0.83,1.84-1.85c0-1.01-0.83-1.85-1.84-1.85h-2.56v6.01h0.7v-3v-2.3h1.86  c0.63,0,1.14,0.51,1.14,1.15c0,0.64-0.51,1.16-1.14,1.16h-1.86l2.77,3h0.93l-2.13-2.31H341.91"></path></g></svg>