<svg xmlns="http://www.w3.org/2000/svg" xmlns:xlink="http://www.w3.org/1999/xlink" id="Capa_1" x="0px" y="0px" viewBox="0 0 310.4 141.73" style="enable-background:new 0 0 310.4 141.73;" xml:space="preserve"><g>	<g id="XMLID_15_">		<path d="M37.61,30.91c4.16-2.39,9.47-0.97,11.87,3.19c2.39,4.16,0.97,9.47-3.19,11.87c-4.16,2.4-9.47,0.97-11.87-3.19   C32.03,38.63,33.45,33.31,37.61,30.91z"></path>		<circle cx="94.08" cy="68.53" r="8.69"></circle>		<path d="M81.05,30.91c-4.16-2.39-9.47-0.97-11.87,3.19c-0.8,1.37-1.17,2.86-1.17,4.33v0.01c0,4.48-1.17,8.8-3.27,12.6   c-0.15,0.28-0.31,0.56-0.49,0.83c-2.22,3.73-5.4,6.9-9.27,9.13c-3.96,2.29-8.29,3.41-12.56,3.47c-0.32,0.01-0.64,0.01-0.96,0   c-4.48-0.09-8.89-1.32-12.75-3.59v0.01c-1.24-0.67-2.65-1.06-4.14-1.05c-4.8,0-8.69,3.9-8.69,8.69s3.89,8.69,8.69,8.69   c1.47,0,2.86-0.37,4.07-1.02c0.07-0.05,0.15-0.1,0.23-0.14c1.96-1.14,4.08-2.02,6.33-2.62c2.09-0.55,4.18-0.85,6.28-0.88   c0.32-0.01,0.64-0.01,0.94,0c4.37,0.07,8.67,1.25,12.56,3.49c3.87,2.23,7.05,5.41,9.27,9.13c0.18,0.27,0.34,0.55,0.49,0.83   c2.11,3.8,3.27,8.13,3.27,12.6v0.01c0,1.47,0.37,2.95,1.17,4.33c2.4,4.16,7.71,5.58,11.87,3.19c4.16-2.4,5.58-7.72,3.18-11.87   c-0.81-1.4-1.94-2.49-3.24-3.23c-3.78-2.21-6.96-5.35-9.23-9.1c-0.16-0.27-0.33-0.55-0.48-0.83c-2.08-3.74-3.26-8.03-3.26-12.6   s1.18-8.86,3.26-12.6c0.15-0.28,0.32-0.56,0.48-0.83c2.27-3.75,5.46-6.89,9.23-9.1c1.3-0.74,2.43-1.83,3.24-3.23   C86.63,38.63,85.2,33.31,81.05,30.91z"></path>		<path d="M34.43,102.98c-2.4-4.16-0.99-9.47,3.17-11.87c4.16-2.4,9.47-0.98,11.87,3.17c2.4,4.16,0.98,9.47-3.17,11.87   C42.14,108.55,36.82,107.12,34.43,102.98z"></path>	</g>	<g>		<path d="M184.76,47.59c-2.9-1.09-6.47-1.64-10.71-1.64c-2.62,0-5.46,0.36-8.51,1.08c-2.43,0.57-4.76,1.33-7,2.26   c-0.94-0.67-1.97-1.25-3.15-1.7c-2.9-1.09-6.47-1.64-10.71-1.64c-2,0-4.16,0.16-6.5,0.47c-2.34,0.31-4.66,0.72-6.97,1.22   c-2.31,0.5-4.43,1.08-6.36,1.73c-1.93,0.66-3.49,1.3-4.68,1.92v43.32h13.94V59.06c0.75-0.37,1.73-0.73,2.95-1.08   c1.21-0.34,2.54-0.51,3.98-0.51c1.68,0,3.12,0.2,4.3,0.61c1.18,0.41,2.12,0.97,2.81,1.68c0.69,0.72,1.2,1.58,1.54,2.57   c0.34,1,0.51,2.09,0.51,3.28v29h13.94V62.8c0-1.26-0.09-2.41-0.22-3.5c0.68-0.48,1.52-0.89,2.51-1.22   c1.21-0.41,2.54-0.61,3.98-0.61c1.68,0,3.12,0.2,4.3,0.61c1.18,0.41,2.12,0.97,2.81,1.68c0.69,0.72,1.2,1.58,1.54,2.57   c0.34,1,0.51,2.09,0.51,3.28v29h13.94V62.8c0-4.18-0.74-7.49-2.2-9.92C189.84,50.45,187.66,48.69,184.76,47.59z"></path>		<path d="M293.16,73.79c-0.91-1.72-2.09-3.06-3.56-4.02c-1.47-0.97-3.03-1.72-4.68-2.24c-1.65-0.53-3.26-0.98-4.82-1.36   c-1.44-0.37-2.75-0.76-3.93-1.17c-1.19-0.4-2.14-0.95-2.85-1.64c-0.72-0.69-1.08-1.62-1.08-2.81c0-1.25,0.53-2.24,1.59-2.99   c1.06-0.75,2.81-1.12,5.24-1.12c2.68,0,5.07,0.51,7.16,1.54c2.09,1.03,4.19,2.14,6.31,3.32V50.35c-1.87-1.12-3.95-2.04-6.22-2.76   c-2.28-0.71-5.35-1.14-9.21-1.26c-2.12-0.06-4.3,0.17-6.55,0.7c-2.24,0.53-4.33,1.42-6.27,2.67c-1.93,1.25-3.49,2.89-4.68,4.91   c-1.19,2.03-1.78,4.57-1.78,7.63c0,2.37,0.36,4.38,1.08,6.03c0.71,1.65,1.67,3.04,2.85,4.16c1.18,1.12,2.53,2.01,4.02,2.67   c1.5,0.66,2.99,1.14,4.49,1.45c1.68,0.37,3.28,0.78,4.77,1.22c1.5,0.44,2.71,0.98,3.65,1.64c0.94,0.66,1.4,1.51,1.4,2.57   c0,1.12-0.45,2.08-1.36,2.85c-0.9,0.78-2.48,1.17-4.72,1.17c-2.18,0-4.26-0.28-6.22-0.84c-1.96-0.56-3.76-1.29-5.38-2.2   c-1.62-0.9-3.09-1.79-4.4-2.67v12.26c2.12,0.87,4.38,1.67,6.78,2.39c2.4,0.72,5.29,1.08,8.65,1.08c3.68,0,7.09-0.48,10.24-1.45   c3.15-0.97,5.72-2.59,7.72-4.86c2-2.28,3.03-5.32,3.09-9.12C294.51,77.77,294.06,75.51,293.16,73.79z"></path>		<path d="M247.72,56.06c-2.03-3.74-4.83-6.41-8.42-8c-3.59-1.59-7.75-2.39-12.49-2.39c-13.03,0-22.55,5.61-22.55,5.61v5.99v37.33   v17.38h13.66V93.51c0.68,0.37,1.39,0.7,2.15,0.96c1.93,0.66,3.8,1.08,5.61,1.26c1.81,0.19,3.18,0.28,4.12,0.28   c4.43,0,8.19-1.03,11.27-3.09c3.09-2.06,5.47-4.94,7.16-8.65c1.68-3.71,2.53-8,2.53-12.87C250.76,64.92,249.75,59.8,247.72,56.06z    M235.56,79.12c-0.84,2.03-2.08,3.48-3.69,4.35c-1.62,0.87-3.68,1.31-6.18,1.31c-1.12,0-2.4-0.15-3.83-0.47   c-1.44-0.31-2.75-0.81-3.93-1.5V60.55v-1.54c0.75-0.37,1.73-0.74,2.95-1.08c2.02-0.56,3.94-0.56,5.38-0.56   c0.29,0,0.59,0.02,0.9,0.05c2.3,0.11,4.16,0.63,5.51,1.59c1.53,1.09,2.6,2.64,3.23,4.63c0.62,2,0.94,4.43,0.94,7.3   C236.82,74.37,236.4,77.1,235.56,79.12z"></path>	</g></g></svg>