<svg xmlns="http://www.w3.org/2000/svg" xmlns:xlink="http://www.w3.org/1999/xlink" id="Capa_1" x="0px" y="0px" viewBox="0 0 240.7 141.73" style="enable-background:new 0 0 240.7 141.73;" xml:space="preserve"><g>	<path d="M48.64,53.12H22.2v42.15h12.98v-33.9h8.49c2.79,0,5.05,2.26,5.05,5.05s-2.26,5.05-5.05,5.05h-5.36l12.18,23.79h14.82  L55.29,77.13C67.92,72.06,65.08,53.12,48.64,53.12"></path>	<path d="M104.8,61.37c-1.74,0-3.16,1.24-3.16,2.77v31.13H90.5V64.14c0-1.53-1.41-2.77-3.15-2.77h-0.76c-1.74,0-2.96,1.24-2.96,2.77  v31.13H70.65v-33.9c0-4.5,3.21-8.25,8.17-8.25h8.84c4.69,0,7.38,2.06,8.42,4.81c1.03-2.75,3.73-4.81,8.42-4.81h9.03  c4.97,0,8.17,3.75,8.17,8.25v33.9h-12.98V64.14c0-1.53-1.41-2.77-3.15-2.77H104.8z"></path>	<path d="M129.31,66.02v16.35c0,6.81,6.25,12.9,13.7,12.9h27.72V67.9h-20.71l-4.82,8.25h12.56v10.86h-9.56  c-3.26,0-5.91-2.64-5.91-5.9V67.28c0-3.26,2.65-5.91,5.91-5.91h22.53v-8.25h-27.72C135.55,53.12,129.31,59.21,129.31,66.02"></path>	<polygon points="218.5,53.12 177.21,53.12 177.21,61.37 191.36,61.37 191.36,95.27 204.35,95.27 204.35,61.37 218.5,61.37  "></polygon>	<path d="M128.16,19.27c17.44,0,32.41,10.54,38.91,25.59h5.06c-9.74-20.41-30.56-34.52-54.69-34.52  c-24.12,0-44.95,14.11-54.68,34.52h26.5C95.75,29.81,110.72,19.27,128.16,19.27"></path>	<path d="M106.71,122.46c-14.73,0-27.71-7.53-35.3-18.94h-4.95c10.77,16.76,29.57,27.86,50.97,27.86c21.4,0,40.19-11.1,50.97-27.86  h-26.4C134.42,114.94,121.45,122.46,106.71,122.46"></path></g></svg>