<svg xmlns="http://www.w3.org/2000/svg" xmlns:xlink="http://www.w3.org/1999/xlink" id="Capa_1" x="0px" y="0px" viewBox="0 0 356.33 141.73" style="enable-background:new 0 0 356.33 141.73;" xml:space="preserve"><g>	<g>		<path d="M107.51,95.57c-2.27-0.35-4.4-0.87-6.37-1.53v-7.28c2.02,0.68,4.2,1.21,6.53,1.58c2.34,0.36,4.55,0.55,6.63,0.55   c3.48,0,6.03-0.59,7.65-1.76c1.62-1.18,2.43-2.89,2.43-5.15c0-1.29-0.25-2.35-0.75-3.19c-0.5-0.84-1.32-1.57-2.48-2.2   c-1.15-0.62-2.76-1.2-4.82-1.73l-3.32-0.86c-4.35-1.08-7.58-2.76-9.71-5.02c-2.13-2.26-3.19-5.22-3.19-8.87   c0-4.59,1.65-8.15,4.94-10.67c3.29-2.53,8.12-3.79,14.48-3.79c2.08,0,4.11,0.13,6.07,0.38c1.96,0.26,3.72,0.62,5.27,1.08v7.28   c-1.6-0.49-3.34-0.86-5.22-1.13c-1.89-0.27-3.78-0.4-5.69-0.4c-3.83,0-6.63,0.59-8.38,1.76c-1.75,1.17-2.63,2.85-2.63,5.02   c0,1.22,0.23,2.24,0.68,3.06c0.46,0.82,1.21,1.53,2.26,2.13c1.05,0.6,2.5,1.16,4.34,1.66l3.32,0.83   c4.72,1.18,8.19,2.89,10.39,5.16c2.21,2.26,3.31,5.23,3.31,8.91c0,3.06-0.75,5.7-2.25,7.91c-1.5,2.22-3.67,3.91-6.52,5.07   c-2.85,1.16-6.25,1.75-10.19,1.75C112.05,96.1,109.78,95.92,107.51,95.57"></path>		<path d="M144.63,90.07c-4.19-4.02-6.28-10.39-6.28-19.1c0-8.47,2.14-14.81,6.43-19.02c4.29-4.21,10.48-6.32,18.57-6.32   c3.63,0,7.16,0.42,10.57,1.26v7.38c-3.19-0.82-6.51-1.23-9.94-1.23c-3.68,0-6.72,0.6-9.11,1.79c-2.39,1.2-4.2,3.1-5.4,5.7   c-1.21,2.6-1.81,6.03-1.81,10.29c0,4.35,0.6,7.83,1.79,10.46c1.2,2.63,2.96,4.51,5.3,5.67c2.34,1.15,5.29,1.73,8.86,1.73   c3.34,0,6.78-0.54,10.31-1.63v7.38c-1.64,0.53-3.41,0.94-5.3,1.23c-1.9,0.29-3.82,0.43-5.77,0.43   C154.89,96.1,148.82,94.09,144.63,90.07"></path>		<path d="M187.8,93.37c-3.31-1.82-5.87-4.61-7.68-8.38c-1.81-3.77-2.71-8.48-2.71-14.13s0.91-10.36,2.71-14.11   c1.8-3.76,4.37-6.55,7.69-8.38c3.33-1.83,7.26-2.74,11.8-2.74c4.57,0,8.5,0.91,11.82,2.74c3.31,1.83,5.87,4.62,7.68,8.38   c1.8,3.76,2.71,8.46,2.71,14.11c0,5.63-0.91,10.33-2.73,14.1c-1.82,3.77-4.38,6.57-7.7,8.39c-3.31,1.83-7.24,2.74-11.79,2.74   C195.05,96.1,191.11,95.19,187.8,93.37 M209.34,84.61c2.25-2.83,3.38-7.34,3.38-13.55c0-6.38-1.13-11.01-3.39-13.88   c-2.26-2.87-5.49-4.3-9.71-4.3c-4.21,0-7.44,1.41-9.69,4.22c-2.25,2.82-3.38,7.34-3.38,13.57c0,6.41,1.12,11.04,3.36,13.9   c2.24,2.86,5.47,4.29,9.71,4.29C203.85,88.85,207.09,87.44,209.34,84.61"></path>		<path d="M229.74,95.17V47.26c2.22-0.46,4.61-0.83,7.18-1.11c2.57-0.28,5.05-0.42,7.45-0.42c8.71,0,15.25,2.06,19.63,6.18   c4.38,4.12,6.57,10.44,6.57,18.95c0,5.83-1.03,10.59-3.09,14.28c-2.06,3.69-5.16,6.41-9.29,8.16c-4.13,1.75-9.35,2.63-15.64,2.63   C238.31,95.93,234.04,95.68,229.74,95.17 M254.13,86.84c2.45-1.21,4.29-3.12,5.5-5.74c1.22-2.61,1.83-6.04,1.83-10.27   c0-4.19-0.61-7.6-1.83-10.22c-1.22-2.63-3.04-4.55-5.47-5.79c-2.43-1.23-5.51-1.84-9.26-1.84c-1.89,0-3.98,0.19-6.29,0.56v34.81   c1.71,0.2,3.74,0.3,6.12,0.3C248.55,88.65,251.68,88.05,254.13,86.84"></path>		<rect x="278.45" y="46.26" width="8.88" height="49.2"></rect>		<polygon points="320.84,70.03 338.43,95.47 328.53,95.47 315.56,76.55 302.59,95.47 292.82,95.47 310.4,70.13 293.81,46.26    303.72,46.26 315.66,63.55 327.59,46.26 337.27,46.26   "></polygon>		<path d="M53.73,61.74L53.73,61.74c-5.02,0.02-9.08,4.11-9.07,9.12c-0.01,5.01,4.05,9.1,9.07,9.12c5.01-0.02,9.08-4.11,9.07-9.12   C62.81,65.85,58.75,61.76,53.73,61.74"></path>		<path d="M70.08,63.3c4.45,0.1,7.73-3.53,7.37-8.03c-0.35-4.32-4.04-8.09-8.28-8.47c-4.46-0.39-8.03,2.98-7.91,7.56   C61.4,59.15,65.38,63.18,70.08,63.3"></path>		<path d="M53.66,47.27h0.13c4.79,0.02,8.46-3.15,8.17-7.01c-0.26-3.49-3.95-6.33-8.24-6.39c-4.29,0.05-7.98,2.89-8.24,6.39   C45.21,44.11,48.87,47.29,53.66,47.27"></path>		<path d="M37.38,63.3c4.7-0.11,8.68-4.15,8.82-8.94c0.12-4.57-3.45-7.94-7.91-7.56c-4.24,0.37-7.93,4.15-8.28,8.47   C29.65,59.77,32.94,63.39,37.38,63.3"></path>		<path d="M83.68,62.77c-3.65-0.22-6.69,3.41-6.78,8.1c0.09,4.69,3.14,8.32,6.78,8.1c3.31-0.2,5.94-3.81,5.89-8.04v-0.11   C89.62,66.58,86.99,62.97,83.68,62.77"></path>		<path d="M53.8,94.46h-0.13c-4.79-0.02-8.46,3.15-8.17,7.01c0.26,3.5,3.95,6.34,8.24,6.39c4.29-0.05,7.98-2.89,8.24-6.39   C62.26,97.62,58.59,94.44,53.8,94.46"></path>		<path d="M70.08,78.43c-4.7,0.11-8.68,4.15-8.82,8.94c-0.12,4.57,3.45,7.94,7.91,7.56c4.24-0.37,7.93-4.15,8.28-8.47   C77.81,81.96,74.53,78.34,70.08,78.43"></path>		<path d="M30.57,70.86c-0.09-4.69-3.14-8.31-6.78-8.1c-3.31,0.2-5.94,3.81-5.89,8.04v0.11c-0.05,4.23,2.58,7.84,5.89,8.04   C27.44,79.18,30.48,75.55,30.57,70.86"></path>		<path d="M37.38,78.43c-4.45-0.1-7.73,3.53-7.37,8.03c0.35,4.32,4.04,8.09,8.28,8.47c4.46,0.39,8.03-2.98,7.91-7.56   C46.06,82.58,42.08,78.55,37.38,78.43"></path>	</g></g></svg>