<svg xmlns="http://www.w3.org/2000/svg" xmlns:xlink="http://www.w3.org/1999/xlink" id="Capa_1" x="0px" y="0px" viewBox="0 0 599.43 141.73" style="enable-background:new 0 0 599.43 141.73;" xml:space="preserve"><g>	<path d="M117.58,51.92c1.42,1.42,2.12,3.06,2.12,4.92v2.61H81.09v6.89h31.57c1.87,0,3.51,0.71,4.92,2.12  c1.42,1.42,2.12,3.06,2.12,4.92v12.11c0,1.87-0.7,3.51-2.1,4.93c-1.4,1.41-3.05,2.12-4.95,2.12H78.53c-1.9,0-3.56-0.7-4.97-2.1  c-1.42-1.4-2.12-3.05-2.12-4.95v-2.61h38.62V76H78.53c-1.9,0-3.56-0.7-4.97-2.1c-1.42-1.4-2.12-3.05-2.12-4.95v-12.1  c0-1.9,0.71-3.55,2.12-4.95c1.42-1.4,3.07-2.1,4.97-2.1h34.13C114.53,49.8,116.17,50.5,117.58,51.92"></path>	<path d="M170.92,59.45h-28.97v23.44h28.97V59.45z M178.46,90.42c-1.42,1.42-3.06,2.12-4.92,2.12h-31.57v9.63  c0,1.86-0.71,3.5-2.12,4.92c-1.42,1.42-3.06,2.13-4.92,2.13h-2.61V56.84c0-1.9,0.71-3.55,2.13-4.95c1.41-1.4,3.07-2.1,4.97-2.1  h34.13c1.9,0,3.55,0.71,4.95,2.12c1.4,1.41,2.1,3.06,2.1,4.92v28.65C180.58,87.36,179.87,89,178.46,90.42"></path>	<path d="M293.52,59.45h-28.97v23.44h28.97V59.45z M301.05,90.42c-1.42,1.42-3.06,2.12-4.92,2.12h-31.57v9.63  c0,1.86-0.71,3.5-2.12,4.92c-1.42,1.42-3.06,2.13-4.92,2.13h-2.61V56.84c0-1.9,0.71-3.55,2.12-4.95c1.41-1.4,3.07-2.1,4.97-2.1  h34.13c1.9,0,3.55,0.71,4.95,2.12c1.4,1.41,2.1,3.06,2.1,4.92v28.65C303.17,87.36,302.47,89,301.05,90.42"></path>	<path d="M315.62,92.54v-35.7c0-1.86,0.7-3.51,2.1-4.92c1.4-1.42,3.05-2.12,4.95-2.12h9.99c1.9,0,3.56,0.7,4.97,2.1  c1.42,1.4,2.13,3.05,2.13,4.95v2.61h-14.48v26.04c0,1.9-0.71,3.55-2.12,4.95c-1.42,1.4-3.07,2.1-4.97,2.1H315.62z"></path>	<path d="M358.72,92.54h-2.56c-1.9,0-3.56-0.7-4.97-2.1c-1.42-1.4-2.12-3.05-2.12-4.95v-35.7h2.61c1.87,0,3.51,0.71,4.92,2.12  c1.41,1.42,2.12,3.06,2.12,4.92V92.54z M349.06,33.25h9.66v9.66h-9.66V33.25z"></path>	<path d="M419.16,92.54h-2.56c-1.9,0-3.56-0.7-4.97-2.1c-1.42-1.4-2.12-3.05-2.12-4.95V59.45h-28.96v26.04  c0,1.87-0.71,3.51-2.12,4.93c-1.42,1.42-3.06,2.12-4.93,2.12h-2.61v-35.7c0-1.9,0.71-3.55,2.12-4.95c1.42-1.4,3.07-2.1,4.97-2.1  h34.13c1.87,0,3.51,0.71,4.92,2.12c1.41,1.42,2.12,3.06,2.12,4.92V92.54z"></path>	<path d="M455.95,52.4c0,1.87-0.71,3.51-2.12,4.92c-1.41,1.42-3.06,2.12-4.92,2.12h-7.44v23.44h14.48v2.61c0,1.87-0.7,3.51-2.1,4.93  c-1.4,1.42-3.05,2.12-4.95,2.12h-10c-1.9,0-3.56-0.7-4.97-2.1c-1.42-1.4-2.12-3.05-2.12-4.95V40.14h2.61  c1.86,0,3.51,0.71,4.92,2.12c1.41,1.42,2.12,3.06,2.12,4.92v2.61h14.48V52.4z"></path>	<path d="M512.5,51.92c1.42,1.42,2.13,3.06,2.13,4.92v2.61h-38.62v6.89h31.57c1.86,0,3.51,0.71,4.92,2.12  c1.42,1.42,2.13,3.06,2.13,4.92v12.11c0,1.87-0.7,3.51-2.1,4.93c-1.4,1.41-3.05,2.12-4.95,2.12h-34.13c-1.9,0-3.55-0.7-4.97-2.1  c-1.42-1.4-2.12-3.05-2.12-4.95v-2.61h38.63V76h-31.53c-1.9,0-3.55-0.7-4.97-2.1c-1.42-1.4-2.12-3.05-2.12-4.95v-12.1  c0-1.9,0.71-3.55,2.12-4.95c1.42-1.4,3.07-2.1,4.97-2.1h34.13C509.44,49.8,511.09,50.5,512.5,51.92"></path>	<path d="M202.4,82.89V59.45h28.97v12.17v11.26H202.4z M241.02,64.58v-7.73c0-1.87-0.7-3.51-2.1-4.92c-1.4-1.42-3.05-2.12-4.95-2.12  h-34.13c-1.9,0-3.56,0.7-4.97,2.1c-1.42,1.4-2.13,3.05-2.13,4.95v28.65c0,1.9,0.71,3.55,2.13,4.95c1.41,1.4,3.07,2.1,4.97,2.1  h31.53v6.6v0.38h-38.22v2.6c0,1.9,0.71,3.55,2.13,4.95c1.42,1.4,3.07,2.1,4.97,2.1h33.73c1.9,0,3.55-0.71,4.95-2.12  c1.4-1.41,2.1-3.06,2.1-4.93L241.02,64.58L241.02,64.58z"></path>	<path d="M520.4,44.42c2.83-0.01,5.13-2.3,5.13-5.14c0-2.84-2.3-5.13-5.13-5.14c-2.84,0.01-5.13,2.3-5.14,5.14  C515.27,42.12,517.56,44.41,520.4,44.42l0.66,0.43l-0.66,0.46c-3.34,0-6.04-2.7-6.04-6.03c0-3.33,2.7-6.03,6.04-6.03  c3.33,0,6.03,2.7,6.03,6.03c0,3.33-2.7,6.03-6.03,6.03"></path>	<path d="M519.5,38.96h1.35c0.56,0,0.85-0.23,0.85-0.8c0-0.54-0.3-0.78-0.85-0.78h-1.35V38.96z M518.27,36.42h3.03  c1.01,0,1.65,0.7,1.65,1.55c0,0.66-0.27,1.16-0.9,1.41v0.02c0.61,0.16,0.78,0.75,0.82,1.31c0.03,0.35,0.02,1.02,0.24,1.33h-1.23  c-0.15-0.35-0.13-0.9-0.2-1.35c-0.09-0.59-0.31-0.85-0.94-0.85h-1.24v2.2h-1.23V36.42z"></path></g></svg>