<svg xmlns="http://www.w3.org/2000/svg" xmlns:xlink="http://www.w3.org/1999/xlink" id="Capa_1" x="0px" y="0px" viewBox="0 0 349.43 141.73" style="enable-background:new 0 0 349.43 141.73;" xml:space="preserve"><g>	<g>		<path d="M213,76.9c-0.38,11.18-14.7,16.37-17.64,9.34C195.01,85.29,194.31,75.44,213,76.9 M237.29,53.24h1.62h1.2   c0.44,0.03,0.86,0.13,1.14,0.29c0.51,0.29,0.79,0.73,0.79,1.39c0,0.48-0.13,0.86-0.41,1.05c-0.25,0.22-0.6,0.35-0.98,0.38   c0.38,0.06,0.63,0.19,0.82,0.35c0.35,0.29,0.51,0.7,0.51,1.3v0.7l0.09,0.35h-1.46c-0.03-0.19-0.06-0.44-0.1-0.79   c0-0.35-0.03-0.57-0.09-0.7c-0.06-0.19-0.22-0.35-0.41-0.41c-0.13-0.03-0.29-0.06-0.51-0.1l-0.35-0.03h-0.32v2.06h-1.52v-5.8   L237.29,53.24z M239.57,60.43c1.17,0,2.19-0.41,3.04-1.27c0.86-0.86,1.27-1.87,1.27-3.07c0-1.17-0.41-2.15-1.27-3.01   c-0.86-0.86-1.87-1.3-3.04-1.3c-1.2,0-2.22,0.44-3.07,1.3c-0.82,0.86-1.24,1.87-1.24,3.04c0,1.2,0.41,2.25,1.27,3.07   c0.86,0.86,1.87,1.27,3.04,1.27 M120.23,59.2c-9.95-0.06-12.29,8.9-12.29,8.9h20.78c0,0,2.79-9.06-8.49-8.87 M240.24,55.68   L240.24,55.68c0.19-0.13,0.29-0.38,0.29-0.7c0-0.32-0.16-0.54-0.48-0.67c-0.19-0.1-0.51-0.13-0.89-0.13h-0.35v1.68h0.6   c0.35,0,0.63-0.06,0.82-0.22 M221.58,92.83c-0.19,2.19,0.29,5.19,0.29,5.19h-11.18l-0.48-3.17c0,0-4.97,3.99-13.94,4.24   c0,0-8.11,0.13-11.88-6.27c-0.6-1.01-1.08-2.22-1.43-3.61c0,0-1.81-9.53,7.35-16.79c7.16-5.64,24.7-3.93,24.7-3.93   s5.07-9.53-3.93-9.28c-7.09-0.41-8.08,5.13-8.08,5.13h-12.89c3.14-14.06,19.64-17.07,31.29-11.66c9.25,4.28,6.21,12.54,6.21,12.54   s-5.7,25.27-5.86,25.94c-0.1,0.41-0.16,1.08-0.22,1.65 M177.56,92.83c-3.29,3.64-7.85,5.89-13.71,6.24   c-15.74,0.95-20.68-3.39-22.2-6.27c-2.63-4.88-0.7-10.36-0.7-10.36h11.91c0,0-2.12,7.63,7.98,7.19c9.06-0.41,6.52-6.11,6.43-6.02   c-0.82-4.09-16.66-5.67-20.46-14.76c-1.9-4.53-1.05-14.51,11.91-17.86c12.95-3.36,22.27,2.22,22.27,2.22   c6.52,3.42,5.29,11.09,5.29,11.09h-11.81c0,0,0.89-5.29-7.41-5.38c-8.55,0.1-7,5.23-7,5.23c1.08,3.93,13.37,5.8,17.61,10.99   c5.38,6.59,3.99,13.21-0.06,17.7 M93.69,92.8l0.13,0.63c0,0-8.39,6.59-19.64,5.45c-5.54-0.16-10.26-2.41-12.83-6.08   c-1.55-2.22-2.31-4.97-2-8.08c0.89-6.68,5.45-23.98,5.45-23.98H46.72l5.48-9.69h14.76l2.44-9.94H81.3l-2.12,10.04h21.19l-5.7,9.79   H76.74l-4.47,18.27c0,0-2.44,6.68,2.38,8.39c9.22,3.01,17.2-3.67,17.2-3.67l1.9,8.9 M98.41,92.8c-3.01-3.83-5.51-10.45-4.12-18.69   c0.76-2.82,3.1-25.08,28.13-24.13c11.47,0.44,17.67,7.25,18.59,15.01c0.67,5.95-1.55,13.05-1.55,13.05H106.1   c0,0-2.6,9.53,8.39,10.52c9.69,0.67,11.18-6.11,11.24-6.11h12.23c0,0-1.01,5.67-6.05,10.36c-3.8,3.55-9.88,6.52-19.54,6.02   C106.96,98.82,101.86,96.76,98.41,92.8 M235.99,52.36c1.01-0.95,2.22-1.43,3.58-1.43c1.43,0,2.66,0.51,3.67,1.52   c1.01,1.01,1.52,2.25,1.52,3.71c0,1.49-0.51,2.72-1.55,3.74c-1.01,0.98-2.22,1.49-3.64,1.49c-1.46,0-2.69-0.51-3.71-1.52   c-1.01-1.01-1.52-2.25-1.52-3.71c0-1.52,0.54-2.79,1.62-3.8 M298.29,32.02H31.67v60.71v17.7h195.51c9.69,0,16.12-8.36,19.8-17.67   c3.9-9.91,4.66-20.93,2.79-24.1c33.92-2.72,48.52-36.58,48.52-36.58"></path>	</g>	<g>		<path d="M300.16,32.02h16.03v78.42h-80.64c37.75-20.4,64.61-78.39,64.61-78.39"></path>	</g></g></svg>